<svg width="193" height="117" viewBox="0 0 193 117" fill="none" xmlns="http://www.w3.org/2000/svg">
<path d="M55.9232 3.31324C54.5276 3.56418 52.8914 4.42538 52.3878 5.17105C52.2269 5.41285 52.001 5.92309 51.8902 6.29596C51.7258 6.84927 51.7342 7.02085 51.9077 7.18614C52.0407 7.28811 52.2529 7.37302 52.387 7.37116C52.7209 7.34657 52.8241 7.64859 52.6775 8.14176C52.6168 8.34624 52.621 8.58176 52.6788 8.63686C52.7504 8.69576 52.7552 8.87937 52.7123 9.02371C52.6622 9.19211 52.7153 9.36306 52.859 9.42895C52.9854 9.50306 53.1375 9.74053 53.19 9.96341C53.2425 10.1863 53.3821 10.6156 53.4817 10.9296C53.6547 11.4463 53.6887 11.4818 54.2413 11.57C54.5674 11.6213 54.9418 11.6601 55.0795 11.6462C55.2757 11.6355 55.3538 11.7222 55.392 11.9932C55.4201 12.2484 55.5083 12.351 55.6735 12.3447C55.8076 12.3428 55.9417 12.341 55.9691 12.3486C55.9966 12.3562 56.0562 12.2555 56.0991 12.1112C56.1527 11.9308 56.2218 11.8979 56.3721 11.9916C56.4848 12.0619 56.7101 12.2025 56.8914 12.2919C57.1477 12.4281 57.1674 12.5116 57.0381 12.6971C56.9439 12.8142 56.7509 13.1643 56.6305 13.4694C56.3445 14.1322 56.4609 14.7894 57.0913 16.2141C57.4468 17.0158 57.5017 17.3305 57.4208 18.1022C57.3702 18.622 57.4079 19.2444 57.4842 19.4869C57.5606 19.7294 57.6197 19.9801 57.6018 20.0403C57.5839 20.1004 57.2513 20.3206 56.8537 20.5098C56.3244 20.7927 56.1003 20.8477 55.9435 20.7261C55.8379 20.6317 54.8375 20.3022 53.7268 19.9942C51.8345 19.4694 51.701 19.4193 51.478 19.071C51.1631 18.6322 50.8239 18.5251 50.2784 18.7123C50.0471 18.7914 49.7544 18.8274 49.6173 18.7894C49.4665 18.7475 49.1499 18.7639 48.8847 18.8075C48.4882 18.8929 48.4048 18.9739 48.3423 19.3341C48.3155 19.5741 48.1111 20.0121 47.915 20.3223C47.719 20.6325 47.4937 21.0908 47.4187 21.3434C47.3436 21.596 47.1368 21.9422 46.9526 22.1125C46.6016 22.4448 46.6571 22.7075 47.0899 22.7495C47.4917 22.7958 48.0621 22.2249 48.4881 21.3405C48.7062 20.9063 48.9166 20.548 48.9715 20.5632C49.0126 20.5746 49.1623 20.7203 49.3048 20.89C49.5558 21.194 49.4767 21.81 49.0839 22.4822C48.9087 22.7722 48.9415 22.9114 49.3536 23.5726C49.6709 24.1032 49.9124 24.3394 50.1216 24.3844C50.2933 24.406 50.6379 24.6448 50.886 24.9089C51.2837 25.3186 52.3921 26.1338 52.472 26.0648C52.6425 25.8908 53.0328 25.4262 53.0579 25.342C53.0757 25.2818 52.9267 25.0842 52.7221 24.9234C52.1056 24.4009 52.4621 24.4997 53.2158 25.0603L53.9182 25.5936L53.6577 26.1203C53.4569 26.5463 52.7352 27.4267 52.4407 27.6185C52.4199 27.6388 52.0949 27.4835 51.7122 27.2732C49.2623 25.8777 46.3702 25.271 43.6876 25.6076C42.4548 25.7605 40.3392 26.4367 39.5119 26.9233C36.4236 28.7749 34.7788 31.3132 34.5952 34.4782C34.4087 37.9027 36.1979 41.1721 39.4676 43.3548C40.7167 44.1959 41.9079 44.6825 43.616 45.0781C45.42 45.5003 46.4442 45.55 48.2386 45.3055C50.7012 44.9599 52.8793 43.9235 54.4826 42.3241C55.1817 41.6196 55.199 41.6114 55.6509 41.7888C55.9967 41.9237 56.1124 42.0339 56.0826 42.234C56.0564 42.422 56.2777 42.6266 56.9466 43.0725L57.8308 43.6432L59.0189 43.491L60.2106 43.3267L60.5696 43.8169C61.2673 44.7655 62.1282 45.2647 63.4052 45.4626C64.2428 45.5907 65.422 45.3188 66.0013 44.8676C66.4418 44.534 66.6624 44.491 66.5837 44.7557C66.5158 44.9842 66.8517 46.3012 67.203 47.1668C68.1025 49.4343 69.7739 51.2518 72.1146 52.565C73.4168 53.2777 75.6936 53.857 77.2752 53.879C80.9474 53.9079 84.0727 52.4312 86.1843 49.6707C87.3501 48.1452 88.1436 45.475 87.993 43.5844C87.6839 39.5798 85.1115 36.2494 81.1128 34.6718C79.6509 34.0971 77.8934 33.818 76.3172 33.9277C75.7735 33.9592 75.237 33.9666 75.1136 33.9324C74.8667 33.8639 74.6986 33.5309 74.5208 32.8306C74.4551 32.552 74.2237 32.0321 74.0043 31.6718C73.653 31.1057 73.6339 30.9702 73.7894 30.5967C74.1946 29.7326 75.7924 27.4026 76.1107 27.2304C76.2872 27.1362 76.4642 26.99 76.4856 26.9178C76.5285 26.7734 77.3214 26.6027 77.5956 26.6788C77.6916 26.7054 78.1739 26.6308 78.6669 26.5202C79.1634 26.3975 79.8621 26.3439 80.2055 26.3871C80.7653 26.4512 80.8619 26.4259 80.9369 26.1733C81.012 25.9207 80.9714 25.8574 80.6114 25.7705C78.4747 25.2691 74.3378 24.3562 73.7577 24.2604C73.2635 24.1754 73.0202 24.0949 73.0453 24.0107C73.0667 23.9386 73.6389 23.5114 74.3178 23.0747C75.9392 22.0141 76.5489 21.3109 76.9516 20.0555C77.2334 19.1572 77.2417 19.0293 76.9858 18.2422C76.7305 17.4033 75.171 14.8095 74.8831 14.7297C74.8008 14.7068 74.4085 14.4288 73.9959 14.1191C72.5506 12.9891 71.4332 12.3538 69.5296 11.6175C68.5059 11.2165 67.4041 10.7286 67.0899 10.5373C66.7143 10.303 66.2964 10.161 65.8981 10.1027C65.3109 10.0309 65.3008 10.0151 65.479 9.76508C65.6399 9.52327 65.6089 9.52769 65.135 9.77384C64.7857 9.95038 64.4686 10.0187 64.2354 9.95401C64.0298 9.89697 63.7204 9.88928 63.5344 9.91582C63.3448 9.95438 62.4625 9.82687 61.5879 9.62337C60.7133 9.41988 59.8828 9.26769 59.7451 9.28157C59.549 9.29228 59.4983 9.21312 59.5155 8.90543C59.5625 8.39767 60.0584 8.02745 60.5455 8.13649C60.7959 8.19291 60.8305 8.17646 60.6629 8.09094C60.4954 8.00542 60.4793 7.90981 60.5872 7.79651C61.0574 7.26293 61.1568 6.67858 60.8664 6.20745C60.7615 6.06117 60.7054 5.85032 60.7203 5.7503C60.7214 5.64646 60.6648 5.48753 60.5867 5.40077C60.4746 5.27854 60.5026 5.23423 60.7231 5.19124C61.609 5.00727 60.4982 4.39977 58.823 4.14349C57.927 4.01217 57.5639 3.88544 56.6928 3.37045C56.5527 3.29253 56.2194 3.26521 55.9232 3.31324ZM68.2343 18.2238C68.4776 18.6038 68.2393 19.0063 67.3619 19.6614C66.4845 20.3164 66.1507 20.6405 65.2001 21.6918C64.4652 22.5165 64.2274 22.8672 63.3639 24.4245C63.1076 24.8872 62.7608 25.455 62.5796 25.6651C62.2131 26.1494 62.2268 26.1532 59.5189 25.0767L57.7285 24.3588L57.9197 23.8651C58.0967 23.4194 58.2666 23.2973 59.7669 22.5937C60.6831 22.1577 61.5433 21.8104 61.7049 21.8161C61.8563 21.806 61.9839 21.7763 61.9982 21.7282C62.0125 21.6801 62.3473 20.6533 62.7184 19.4542L63.4035 17.2486L64.0056 17.2203C64.3359 17.2078 64.7657 17.2098 64.9684 17.2269C65.1675 17.2561 65.4668 17.248 65.6319 17.2417C66.4135 17.159 67.9201 17.733 68.2343 18.2238ZM73.8515 25.3931C74.2099 25.6357 74.5474 25.8985 74.5843 25.9739C74.6386 26.041 74.3502 26.612 73.9408 27.2406C73.5313 27.8691 72.9991 28.711 72.7643 29.1016L72.3299 29.8144L70.97 29.3461C69.836 28.9665 69.5284 28.8031 69.2022 28.4522C68.9881 28.2236 68.6614 27.9247 68.467 27.7796C68.1397 27.5326 68.1433 27.5206 68.4753 27.3523C68.9873 27.0776 70.642 25.8049 71.2469 25.2176C71.5527 24.9378 71.9199 24.7011 72.0504 24.7113C72.6347 24.7431 73.2374 24.9624 73.8515 25.3931ZM61.3029 26.9646C61.5599 27.0489 61.5832 27.1204 61.4688 27.5053C61.3937 27.7579 61.3896 28.1213 61.4493 28.3201C61.5853 28.7615 61.5817 28.7735 61.6457 29.8068C61.7091 30.5925 61.2697 33.2699 61.0759 33.3724C61.0414 33.3888 60.7463 33.333 60.4172 33.2417C59.855 33.0858 59.8108 33.0345 58.1661 30.3781C57.2442 28.8855 56.4754 27.5266 56.4533 27.3512C56.356 26.5301 56.9961 25.5749 57.5934 25.6624C57.7788 25.6878 58.6147 25.9717 59.4535 26.2954C60.296 26.6072 61.1247 26.9151 61.3029 26.9646ZM70.8296 30.8174C70.965 31.0112 71.027 31.3018 70.9806 31.4582L70.8912 31.7589L70.7164 31.398C70.4916 30.906 70.3735 30.4045 70.4969 30.4387C70.538 30.4501 70.6942 30.6236 70.8296 30.8174ZM73.9621 32.3632C74.1858 32.959 74.2993 34.1753 74.1127 34.2537C73.9744 34.3195 73.3009 32.1408 73.33 31.6931C73.3514 31.3215 73.3687 31.3133 73.5416 31.5305C73.6502 31.6647 73.835 32.0415 73.9621 32.3632ZM66.9233 32.0255C67.2996 32.5075 67.8476 33.3104 68.1511 33.8373L68.7147 34.7878L68.0233 35.7157C67.6461 36.236 67.1574 36.8817 66.941 37.1602L66.5501 37.6767L66.3336 37.3563C66.1678 37.115 66.0039 37.0175 65.6569 36.9863C65.0661 36.9266 64.8389 36.6423 64.989 36.1371C65.1606 35.5597 65.8837 35.1744 66.546 35.293L67.0676 35.3856L66.5502 35.229C65.8067 34.9838 65.0699 35.3654 64.8519 36.0991C64.666 36.7246 64.8485 37.0095 65.5079 37.0882C65.865 37.1352 66.0462 37.2245 66.1506 37.4227C66.3563 37.7792 66.314 37.8716 66.0225 37.8038C65.7858 37.7512 65.7822 37.7632 66.0011 37.876C66.2813 38.0318 66.2134 38.2603 65.699 38.7426C65.2192 39.2085 64.6946 39.3755 64.2147 39.2424C63.5154 39.0484 63.5225 39.0244 64.3805 36.7365C65.2349 34.4607 65.9849 31.6872 65.906 31.0534C65.8654 30.6906 65.869 30.6786 66.0521 30.9116C66.157 31.0579 66.5434 31.5556 66.9233 32.0255ZM79.1693 37.4658C78.2995 40.193 77.5792 42.1675 77.4736 42.0732C77.3681 41.9788 77.3632 41.4957 77.4402 38.9392C77.4763 37.8686 77.4898 36.6745 77.4909 36.2712C77.4884 35.88 77.4997 35.4925 77.5211 35.4203C77.564 35.276 78.8422 35.3701 79.4109 35.5538L79.7466 35.673L79.1693 37.4658ZM81.5781 36.4022C81.9096 36.5853 82.1618 36.7854 82.144 36.8456C82.1225 36.9178 81.3048 38.0711 80.3268 39.4143C79.3488 40.7575 78.4161 42.0481 78.2415 42.2861C78.0806 42.5279 77.8827 42.6944 77.8213 42.6513C77.6949 42.5772 78.4312 40.0994 79.4435 37.2424L80.0047 35.6534L80.4906 35.8663C80.7506 35.9905 81.2293 36.2274 81.5781 36.4022ZM55.6282 30.0779C56.0009 30.5718 56.5001 31.4393 56.7309 32.0111C56.9755 32.5867 57.3721 33.3998 57.6285 33.8354C59.603 37.1302 60.503 38.7468 60.4636 38.8791C60.3892 39.0798 59.8527 39.3867 59.5189 39.4113C59.3847 39.4131 59.1528 39.5441 59.0068 39.6859C58.8745 39.8315 58.6844 39.922 58.5884 39.8953C58.4787 39.8649 58.2575 39.9598 58.0704 40.0902C57.8933 40.2364 57.5136 40.3654 57.2418 40.3812C56.9664 40.409 56.7178 40.4963 56.6892 40.5925C56.6463 40.7368 56.0472 40.805 55.9524 40.6746C55.9321 40.6429 56.1269 40.1371 56.3915 39.5465C56.8962 38.3975 57.1874 36.968 57.1389 35.7828C57.0818 33.827 56.0983 31.393 54.7238 29.775C54.2659 29.2183 54.2122 29.0993 54.3791 28.9372C54.6223 28.7182 54.5883 28.6828 55.6282 30.0779ZM49.4212 27.6404C49.4683 27.7316 48.8594 29.2813 47.8959 31.4748C47.4651 32.475 47.1248 33.0707 46.8327 33.3542C46.3112 33.8606 46.0525 33.932 46.1633 33.5591C46.2098 33.4028 46.3114 32.0118 46.4011 30.4613C46.4908 28.9108 46.5829 27.4522 46.6061 27.2242L46.6382 26.8165L48.0095 27.1968C48.7636 27.4059 49.401 27.6087 49.4212 27.6404ZM51.2754 28.4931C51.4811 28.5502 51.2576 28.8527 50.2074 29.8895C49.6162 30.4807 48.8509 31.2579 48.4927 31.6142C48.1517 31.9624 47.8495 32.2301 47.8257 32.2105C47.809 32.1668 49.609 27.7576 49.6716 27.6968C49.6853 27.7006 50.024 27.8596 50.4342 28.0776C50.8342 28.2796 51.2104 28.4621 51.2754 28.4931ZM77.3235 36.7846C77.3076 37.5874 77.2816 38.9733 77.2615 39.8401C77.2516 40.7227 77.2088 41.4659 77.1605 41.4786C77.1259 41.495 76.8552 41.1075 76.5547 40.6205C76.1766 39.9949 75.8694 39.1806 75.577 37.9668C74.9028 35.241 74.8653 35.517 75.7953 35.3844C76.6734 35.2764 76.9625 35.2524 77.1992 35.305C77.285 35.3158 77.3394 35.9818 77.3235 36.7846ZM46.4779 27.0064C46.4636 27.0545 46.3525 28.6772 46.2277 30.5955C46.113 32.5297 45.9745 34.1447 45.9256 34.2093C45.8487 34.3182 45.6632 33.6939 44.9729 31.1719C44.841 30.6666 44.6794 30.062 44.5994 29.8315C44.3704 29.104 43.8203 26.9594 43.8346 26.9113C43.8453 26.8752 44.2411 26.8418 44.7192 26.8311C45.9646 26.7859 46.528 26.838 46.4779 27.0064ZM83.554 37.7444C83.9356 38.0586 84.5093 38.7254 84.851 39.2238L85.4598 40.1217L83.3347 41.0296C82.1634 41.525 80.5635 42.214 79.7653 42.5525C78.9809 42.8948 78.3454 43.1352 78.3633 43.075C78.3812 43.0149 79.5858 42.008 81.0467 40.8377C83.9858 38.4891 84.1664 38.3309 83.9596 38.3777C83.8803 38.3947 83.4678 38.6839 83.0547 39.0251C80.1049 41.4098 78.2315 42.8692 78.1909 42.8059C78.1605 42.7584 79.0837 41.4 80.2435 39.7948C82.6399 36.4754 82.3108 36.6836 83.554 37.7444ZM72.2712 34.407C72.4692 34.8395 72.3429 35.0649 72.0889 34.721C71.8891 34.4443 71.8795 34.0771 72.0578 34.1265C72.1126 34.1417 72.2074 34.2722 72.2712 34.407ZM43.9916 28.2308C44.2004 28.9266 44.5142 30.0682 44.692 30.7685C44.8871 31.4606 45.1777 32.5307 45.3495 33.1512C45.5249 33.7597 45.6496 34.289 45.6424 34.313C45.6067 34.4333 43.6871 31.7527 41.6817 28.7619L40.9309 27.6423L41.5455 27.4222C42.1255 27.2185 43.5943 26.8707 43.6211 26.9302C43.6313 26.946 43.8001 27.5267 43.9916 28.2308ZM75.2514 37.2646C75.6595 38.888 75.6786 39.0235 75.421 38.6917C75.1091 38.2927 74.4045 35.8189 74.5476 35.6372C74.7532 35.3948 74.8134 35.5417 75.2514 37.2646ZM53.9032 30.8884C54.534 31.6623 55.1751 32.7514 55.307 33.2567C55.3893 33.579 55.5377 33.529 52.122 34.2352C50.5571 34.5564 48.851 34.9034 48.3407 35.0223C47.8168 35.1374 47.3345 35.212 47.2659 35.1929C47.0877 35.1435 47.7535 34.6511 48.6494 34.1835C50.7214 33.1046 53.5098 31.6126 53.8353 31.4164C54.3098 31.1183 52.5603 31.9611 50.4191 33.0729L48.6863 33.9594L49.5792 33.1524C51.5353 31.3644 53.0737 30.0334 53.1697 30.06C53.2246 30.0753 53.5573 30.454 53.9032 30.8884ZM42.0777 29.6269C42.7646 30.6116 43.8339 32.158 44.4362 33.0281C45.0522 33.902 45.5149 34.6422 45.4804 34.6587C45.4422 34.6872 44.9509 34.3426 44.3988 33.903C43.8568 33.4793 42.3024 32.2671 40.9626 31.2315C39.6091 30.1922 38.5293 29.2808 38.5508 29.2086C38.6223 28.968 40.5482 27.7315 40.7401 27.7847C40.7813 27.7961 41.3806 28.6263 42.0777 29.6269ZM63.0511 34.1675C63.1555 34.3657 63.1072 34.3784 62.7781 34.2871C62.2708 34.1464 61.3504 34.3468 61.1752 34.6367C61.0423 34.8342 60.9707 34.7753 60.5211 34.0908L60.0207 33.3271L60.9746 33.5135C62.697 33.861 62.9265 33.9377 63.0511 34.1675ZM85.993 41.3242C86.1934 41.8485 86.3157 42.286 86.2985 42.2942C85.9635 42.4226 78.659 43.3784 78.6221 43.3031C78.5779 43.2518 78.6405 43.191 78.7371 43.1657C78.8819 43.1278 81.5393 41.9769 84.4077 40.7153C84.9228 40.4805 85.4199 40.306 85.4885 40.325C85.5708 40.3478 85.7926 40.7999 85.993 41.3242ZM69.5557 36.7526C69.4484 36.814 69.1283 37.1418 68.8219 37.4735C68.1949 38.1849 68.1651 38.0855 68.7593 37.2348C69.2206 36.5815 69.4775 36.3664 69.651 36.5317C69.7088 36.5868 69.6802 36.683 69.5557 36.7526ZM55.6816 34.4933C55.8445 35.2936 55.902 36.299 55.7875 36.3845C55.7321 36.4212 55.4227 36.4135 55.093 36.3741C54.2655 36.2618 49.3883 35.7425 48.2443 35.6465C47.7495 35.6135 47.3274 35.5355 47.3143 35.4798C47.2743 35.3645 55.3643 33.6632 55.4663 33.7696C55.514 33.8088 55.61 34.1349 55.6816 34.4933ZM86.385 42.5526C86.3778 42.5766 86.4143 43.0034 86.4668 43.5257C86.5093 44.0322 86.4801 44.4798 86.4247 44.5165C86.3246 44.5539 81.6179 44.1599 79.619 43.9441C77.9706 43.7473 78.5643 43.5474 82.3497 42.9958C85.567 42.508 86.407 42.4285 86.385 42.5526ZM40.6604 31.1998C41.8809 32.1371 43.4252 33.3336 44.1138 33.8631C45.3033 34.8049 45.639 35.2235 44.9242 34.882C44.7155 34.7851 43.6066 34.3213 42.4392 33.8543C37.8074 32.01 36.736 31.5696 36.6984 31.5462C36.5523 31.3885 38.1222 29.4022 38.3416 29.463C38.3964 29.4783 39.4536 30.2662 40.6604 31.1998ZM74.4204 40.2109C74.9476 41.3336 74.8576 41.3867 74.0496 40.4596C73.6048 39.9587 73.5547 39.8276 73.7347 39.7213C74.0429 39.5333 74.1281 39.596 74.4204 40.2109ZM67.953 38.5996C67.8165 38.8091 67.4638 39.5966 67.1939 40.355C66.9204 41.1254 66.635 41.7363 66.5801 41.7211C66.443 41.6831 66.5115 41.4026 66.8678 40.3036C67.0745 39.6579 68.0971 38.0146 68.1848 38.1691C68.2051 38.2008 68.1032 38.3939 67.953 38.5996ZM74.2613 40.8959C75.0597 41.7553 75.8636 43.0458 75.6633 43.1205C75.5978 43.1413 73.3406 42.3461 72.4952 41.9945C72.1529 41.8475 71.9449 41.6986 71.9735 41.6024C72.002 41.5062 71.9454 41.3472 71.8744 41.2364C71.7319 41.0667 71.7533 40.9945 72.0597 40.6629C72.8363 39.7976 73.0515 39.6229 73.1773 39.749C73.259 39.8237 73.7449 40.3361 74.2613 40.8959ZM86.4463 45.0433C86.441 45.2111 86.3141 45.7878 86.1532 46.3291C85.8065 47.4958 86.0062 47.4731 83.8671 46.5804C78.5448 44.3622 78.6372 44.4009 78.7087 44.1603C78.7444 44.04 79.6243 44.0758 82.0805 44.3012C83.9149 44.4715 85.5055 44.6131 85.6223 44.6195C86.1827 44.6317 86.4391 44.7679 86.4463 45.0433ZM55.6865 37.7235C55.3315 39.6171 53.726 41.7236 51.7321 42.8893C50.5864 43.548 48.4225 44.2368 48.274 43.9873C48.1017 43.7182 46.4036 36.6463 46.4906 36.5533C46.5395 36.4887 47.5342 37.9363 48.7239 39.7766C49.9171 41.6047 50.9387 43.1119 50.9935 43.1271C51.0484 43.1423 50.1264 41.6498 48.9367 39.8095C47.7506 37.9573 46.8048 36.4451 46.8429 36.4166C46.9121 36.3837 47.7438 37.031 51.0566 39.6684C52.8083 41.0655 53.5894 41.6337 53.4713 41.4317C53.4409 41.3842 51.9926 40.2144 50.2373 38.8292C48.4819 37.4441 47.0444 36.2382 47.0384 36.1584C47.0294 36.0387 47.2113 36.0761 47.6733 36.2694C48.0293 36.4202 48.8067 36.7009 49.4029 36.8922C50.2936 37.1913 50.2047 37.1407 48.9038 36.6237C46.5006 35.6707 46.6114 35.5973 50.0495 35.9649C51.4302 36.1135 53.2885 36.3033 54.1541 36.3871C55.2224 36.4881 55.7542 36.5966 55.7977 36.6998C55.8347 36.7751 55.7847 37.243 55.6865 37.7235ZM39.6133 32.8753C41.0716 33.462 42.9132 34.2071 43.6972 34.5157C44.4914 34.8401 45.1484 35.1265 45.1788 35.174C45.2533 35.2727 44.1815 35.1838 41.9667 34.8951C41.0224 34.7764 39.3054 34.5606 38.1346 34.4052C36.9601 34.2617 35.9544 34.1 35.9102 34.0487C35.7946 33.9385 36.3784 31.874 36.5512 31.7918C36.7104 31.7057 36.6555 31.6905 39.6133 32.8753ZM73.7228 42.6083C74.257 42.8086 74.6642 42.9866 74.6159 42.9992C74.5294 43.0404 71.6184 42.5976 71.1658 42.4721C70.8779 42.3922 70.8815 42.3802 71.3381 42.1423C71.7255 41.9373 71.8942 41.9189 72.2812 42.0653C72.5345 42.1616 73.1886 42.4081 73.7228 42.6083ZM79.6043 44.9425C80.5314 45.3689 84.0841 46.8489 84.9814 47.1759C85.6217 47.4185 85.6694 47.4578 85.5836 47.7465C85.5336 47.9149 85.288 48.3415 85.0503 48.6922C84.533 49.4341 84.7076 49.4955 82.7239 47.9299C81.9536 47.3256 80.7402 46.3642 80.0003 45.8075C78.1764 44.4033 78.1024 44.2526 79.6043 44.9425ZM42.9529 35.8716C41.7166 36.0365 39.6742 36.3164 38.3931 36.4819C36.0962 36.7693 36.0825 36.7655 35.9966 36.4552C35.9071 36.157 35.7774 34.5456 35.8274 34.3773C35.8525 34.2931 37.3399 34.4321 39.867 34.7685C40.6122 34.8579 41.9 35.0198 42.731 35.1201C45.4579 35.4336 45.4811 35.5052 42.9529 35.8716ZM81.8254 47.4073C82.3197 47.7917 83.1276 48.4194 83.5981 48.7842L84.4775 49.4708L83.7515 50.1157C83.3486 50.4727 82.8801 50.8505 82.7102 50.9727L82.3884 51.1568L81.4032 49.7769C78.5194 45.6962 78.0835 45.0155 78.2671 44.8972C78.4298 44.7991 78.7166 44.9828 79.6915 45.7479C80.3664 46.2736 81.3311 47.0228 81.8254 47.4073ZM43.3847 36.6163C42.5168 37.0396 40.7947 37.89 39.5602 38.4981L37.3159 39.6073L36.874 38.8468C36.6277 38.427 36.3593 37.8317 36.2633 37.5056L36.098 36.913L38.3055 36.6268C39.521 36.4822 41.4531 36.2238 42.5965 36.0722C43.7399 35.9206 44.7384 35.807 44.8207 35.8298C44.8928 35.8368 44.249 36.205 43.3847 36.6163ZM44.3499 37.0142C43.7348 37.5857 42.6959 38.5345 42.0528 39.1503C41.3996 39.7503 40.5413 40.5408 40.1658 40.9054C39.7766 41.2662 39.3981 41.5909 39.3289 41.6238C39.1006 41.7427 37.4179 40.0132 37.4966 39.7485C37.5395 39.6042 45.1807 35.9166 45.3316 35.9584C45.4001 35.9775 44.9615 36.4547 44.3499 37.0142ZM75.9838 44.5894C75.9516 44.6977 72.6905 46.931 70.8165 48.1429C70.3593 48.4327 70.0124 48.7011 70.0428 48.7485C70.0732 48.796 70.537 48.5341 71.0776 48.1632C75.0623 45.4926 76.1084 44.8193 76.2461 44.8054C76.3493 44.8079 76.3451 44.8719 76.2474 45.001C76.1395 45.1143 75.6615 45.7239 75.1555 46.3777C73.2745 48.8116 72.228 50.1357 71.9979 50.4104L71.7643 50.6972L71.0864 50.1316C70.7185 49.8213 70.1747 49.2538 69.8628 48.8549C69.3273 48.1595 68.36 46.4201 68.4947 46.3663C69.275 46.0879 74.7169 44.4073 74.9959 44.3675C75.4645 44.2892 76.0338 44.421 75.9838 44.5894ZM44.7972 37.9064C42.0799 43.1548 41.9398 43.3764 41.687 43.2282C41.5708 43.1699 41.3007 43.0299 41.0783 42.9292C40.8732 42.8202 40.395 42.5313 40.054 42.2805L39.3987 41.8384L40.862 40.4605C41.6786 39.7105 42.5822 38.8675 42.8843 38.5997C43.1901 38.32 43.7879 37.7567 44.2361 37.3472C45.1469 36.4801 45.5635 36.1269 45.6142 36.2061C45.6345 36.2377 45.2615 36.9936 44.7972 37.9064ZM79.4915 47.3199C80.3072 48.4705 81.2649 49.8427 81.6031 50.3531L82.2358 51.2707L81.2784 51.6953C80.7533 51.9142 80.1178 52.1546 79.8663 52.202L79.4114 52.2842L78.557 48.7663C78.0904 46.8402 77.727 45.2161 77.7449 45.1559C77.8021 44.9635 78.0293 45.2478 79.4915 47.3199ZM45.3408 40.3226C45.0628 42.1073 44.8145 43.6919 44.7991 43.8439C44.7657 44.0559 44.6793 44.0971 44.3323 44.0659C43.8 44.0094 42.7268 43.7248 42.3715 43.5221L42.1151 43.3859L42.8886 41.8819C43.6335 40.474 45.2639 37.3849 45.6644 36.6366L45.8539 36.2986L45.8563 36.6899C45.854 36.8975 45.6189 38.5379 45.3408 40.3226ZM47.0774 40.023C47.5242 41.8655 47.9389 43.5168 48.0021 43.7036C48.0552 43.8746 48.0565 44.0702 47.9975 44.1189C47.8586 44.2367 46.3104 44.3021 45.5652 44.2126C44.8576 44.1465 44.882 44.4137 45.3649 41.2406C45.7953 38.4436 45.9846 37.2072 46.0209 36.7355C46.0732 36.06 46.2361 36.5608 47.0774 40.023ZM74.029 44.4249C73.5521 44.6311 68.8172 46.1302 68.5901 46.1453C68.4696 46.151 68.3289 45.8255 68.2215 45.288C67.9189 43.7589 67.8664 43.8355 69.1869 43.8371C70.2737 43.8261 71.5691 43.9119 73.2348 44.1005C74.3681 44.2325 74.4057 44.2559 74.029 44.4249ZM75.417 48.4944C74.7807 50.3359 74.2201 51.873 74.1718 51.8856C74.0681 51.935 72.3987 51.1596 72.1501 50.9474C71.939 50.7586 71.9145 50.7909 75.7319 45.8866C76.4751 44.934 76.4715 44.946 76.5323 45.041C76.5627 45.0885 76.0706 46.6446 75.417 48.4944ZM78.3626 48.6212C78.7928 50.4201 79.1568 51.9922 79.1622 52.1239C79.1766 52.3753 78.7939 52.4644 77.5384 52.4938C76.9673 52.5177 76.916 52.4905 76.9011 52.291C76.8908 51.9757 76.9966 47.1748 77.044 46.0162C77.082 45.3887 77.2018 45.1355 77.4409 45.2799C77.5023 45.323 77.9152 46.8306 78.3626 48.6212ZM76.8771 46.1782C76.8749 46.6853 76.8465 47.9794 76.8104 49.05C76.7778 50.1086 76.7643 51.3027 76.7668 51.6939C76.7693 52.0852 76.7449 52.417 76.7276 52.4252C76.572 52.4992 74.585 52.1434 74.5277 52.0364C74.4872 51.9731 74.8553 50.7342 75.3427 49.294C75.83 47.8538 76.3388 46.3414 76.4639 45.9204C76.5992 45.5152 76.7404 45.1898 76.809 45.2089C76.8638 45.2241 76.8967 45.6628 76.8771 46.1782Z" fill="#F19C20"/>
<path d="M67.3558 35.6618C67.6974 35.9123 67.821 35.9464 67.7677 35.7757C67.7479 35.6922 67.5837 35.5948 67.4154 35.5613C67.1271 35.4815 67.1235 35.4936 67.3558 35.6618Z" fill="#F19C20"/>
<path d="M51.6755 37.7239C52.3087 38.0038 53.3693 38.4018 54.0204 38.621L55.1984 39.0252L54.0316 38.5323C53.3984 38.2524 52.3378 37.8544 51.6867 37.6352L50.5087 37.231L51.6755 37.7239Z" fill="#F19C20"/>
<path d="M61.2984 8.65089C61.4981 8.73232 61.8289 8.82375 62.0566 8.86043C62.2705 8.8933 62.0984 8.8195 61.6849 8.7052C61.2713 8.59091 61.085 8.56566 61.2984 8.65089Z" fill="#F19C20"/>
<path d="M63.5918 9.32574C63.4645 9.35527 63.4193 9.40752 63.4877 9.42646C63.5699 9.44919 63.7382 9.43103 63.8655 9.4015C63.9928 9.37198 64.0516 9.32351 63.9695 9.30078C63.9011 9.28184 63.719 9.29621 63.5918 9.32574Z" fill="#F19C20"/>
<path d="M37.7801 4.21903C36.3755 4.64134 34.7833 5.74008 34.3397 6.58989C34.1983 6.8652 34.0163 7.4335 33.9388 7.84277C33.8239 8.45009 33.849 8.63182 34.0427 8.78849C34.1887 8.88227 34.4142 8.94906 34.5513 8.93216C34.8908 8.86887 35.0256 9.17893 34.9232 9.72023C34.8807 9.94467 34.9077 10.1949 34.9723 10.2472C35.0512 10.3019 35.0739 10.4968 35.0439 10.6553C35.0089 10.8401 35.0798 11.0162 35.2333 11.0704C35.3698 11.1352 35.5485 11.3711 35.6237 11.6025C35.699 11.834 35.8834 12.2755 36.0157 12.5987C36.2427 13.1296 36.281 13.1635 36.8553 13.1959C37.1942 13.2144 37.5813 13.214 37.7209 13.1839C37.9207 13.1507 38.0091 13.2344 38.0743 13.5186C38.1277 13.7871 38.228 13.8865 38.3965 13.8615C38.5336 13.8446 38.6708 13.8277 38.6996 13.8327C38.7284 13.8378 38.7797 13.724 38.8097 13.5656C38.8472 13.3676 38.9148 13.3248 39.0777 13.4079C39.1998 13.4703 39.4442 13.5949 39.6384 13.6698C39.914 13.7863 39.9423 13.8731 39.8278 14.0849C39.7426 14.2201 39.5787 14.6142 39.485 14.9524C39.2561 15.6898 39.4387 16.3765 40.2218 17.8232C40.6631 18.6371 40.7497 18.966 40.7414 19.7965C40.7398 20.3555 40.8385 21.0139 40.9401 21.2636C41.0417 21.5132 41.1264 21.7736 41.1139 21.8396C41.1014 21.9056 40.7821 22.1771 40.3933 22.4227C39.8786 22.7826 39.6544 22.8661 39.4821 22.7541C39.365 22.6654 38.3088 22.4258 37.1419 22.2214C35.1537 21.8731 35.0121 21.8347 34.7501 21.4887C34.3854 21.0565 34.0277 20.9802 33.4873 21.2402C33.2581 21.3501 32.9619 21.4209 32.8178 21.3957C32.6594 21.3679 32.3368 21.4206 32.0694 21.4965C31.6718 21.6314 31.5942 21.7269 31.5649 22.1174C31.5607 22.3758 31.3937 22.8649 31.2229 23.2169C31.0521 23.5689 30.8657 24.0818 30.8132 24.3591C30.7608 24.6364 30.5825 25.028 30.4103 25.2297C30.0829 25.6225 30.1651 25.896 30.6123 25.8925C31.0282 25.8972 31.5571 25.226 31.908 24.2372C32.0894 23.7506 32.2702 23.3458 32.3278 23.3559C32.371 23.3635 32.5383 23.5019 32.7006 23.6667C32.987 23.9624 32.9655 24.627 32.6283 25.3863C32.4769 25.7145 32.5239 25.8591 33.0097 26.5171C33.3857 27.0467 33.6558 27.2714 33.8744 27.296C34.0523 27.2999 34.4282 27.5158 34.7077 27.7694C35.1545 28.1614 36.3681 28.9059 36.4432 28.8236C36.6009 28.6193 36.9558 28.0813 36.9732 27.9889C36.9857 27.9229 36.814 27.7291 36.5891 27.5806C35.9074 27.0929 36.282 27.1585 37.1077 27.6715L37.8784 28.1611L37.6626 28.7508C37.4981 29.2266 36.8441 30.2442 36.5612 30.4811C36.5418 30.505 36.1941 30.3759 35.7818 30.1945C33.1387 28.9813 30.119 28.6569 27.4048 29.3136C26.1573 29.6134 24.0564 30.5684 23.2563 31.1785C20.273 33.493 18.8339 36.3782 18.9515 39.7679C19.0912 43.4343 21.2388 46.7159 24.7974 48.676C26.1575 49.4326 27.4242 49.8182 29.2113 50.0494C31.0992 50.2983 32.1526 50.2373 33.9663 49.7775C36.4544 49.1358 38.5844 47.7903 40.0716 45.9093C40.7195 45.0816 40.7364 45.0709 41.2162 45.2095C41.5833 45.3148 41.7124 45.4192 41.7012 45.6355C41.6926 45.8386 41.9388 46.0318 42.6668 46.4321L43.6273 46.9414L44.829 46.6472L46.0333 46.3398L46.4482 46.8217C47.2542 47.754 48.1839 48.1897 49.5105 48.2584C50.3805 48.3017 51.5615 47.8811 52.1112 47.3363C52.53 46.9323 52.7517 46.862 52.6967 47.1525C52.6492 47.4033 53.1203 48.768 53.5636 49.6504C54.7035 51.9644 56.5903 53.7135 59.1138 54.8512C60.5158 55.4651 62.903 55.8287 64.5245 55.6763C68.2873 55.2988 71.3447 53.3791 73.2402 50.2057C74.2866 48.452 74.8412 45.5211 74.5045 43.5252C73.8014 39.2963 70.8459 36.0369 66.5993 34.802C65.047 34.3527 63.2206 34.251 61.6173 34.543C61.0637 34.637 60.5151 34.7046 60.3854 34.6819C60.1261 34.6364 59.9217 34.3006 59.6721 33.5748C59.578 33.2855 59.2908 32.7578 59.0313 32.3986C58.617 31.835 58.5844 31.6929 58.7076 31.278C59.039 30.313 60.45 27.6549 60.7593 27.4362C60.9309 27.3162 61.098 27.1409 61.113 27.0617C61.143 26.9033 61.9383 26.6334 62.2264 26.6839C62.3273 26.7015 62.8139 26.5685 63.308 26.3959C63.8046 26.2101 64.5147 26.0754 64.8705 26.0831C65.4499 26.0891 65.5463 26.0515 65.5988 25.7742C65.6512 25.497 65.6036 25.4341 65.2265 25.3816C62.9904 25.0854 58.6665 24.5735 58.0633 24.536C57.5491 24.5005 57.2922 24.4418 57.3097 24.3494C57.3247 24.2702 57.8694 23.7518 58.5224 23.2115C60.08 21.9021 60.6364 21.0857 60.9275 19.7044C61.1293 18.7168 61.1255 18.5797 60.7875 17.7703C60.4451 16.9055 58.5979 14.3177 58.2954 14.2647C58.2089 14.2495 57.7804 13.9971 57.328 13.7133C55.7391 12.6711 54.5337 12.1189 52.5135 11.5468C51.4266 11.2336 50.2514 10.8368 49.9112 10.6681C49.504 10.4603 49.0624 10.3557 48.649 10.3378C48.0408 10.3268 48.0289 10.3111 48.1872 10.0251C48.3286 9.74976 48.2973 9.75791 47.8359 10.0726C47.4953 10.2994 47.1771 10.4074 46.9322 10.3645C46.7161 10.3266 46.3986 10.3528 46.2107 10.4018C46.0203 10.4639 45.1046 10.4262 44.1895 10.3068C43.2743 10.1874 42.4093 10.1178 42.2697 10.1479C42.0699 10.1811 42.0103 10.1024 41.9983 9.77294C41.9974 9.22718 42.4694 8.7779 42.9786 8.83983C43.2405 8.87205 43.2743 8.8507 43.0945 8.77828C42.9147 8.70586 42.8889 8.60587 42.9885 8.47327C43.4184 7.85294 43.4638 7.2198 43.121 6.75054C42.9994 6.60648 42.9216 6.38825 42.9272 6.28011C42.9184 6.16944 42.845 6.00654 42.7566 5.92286C42.6301 5.80521 42.6545 5.75492 42.8761 5.68464C43.7654 5.39029 42.5694 4.86706 40.8294 4.78049C39.8993 4.74031 39.5153 4.64576 38.5737 4.19437C38.4227 4.127 38.0789 4.13496 37.7801 4.21903ZM51.8251 18.7237C52.1109 19.1011 51.9057 19.5562 51.0706 20.3511C50.2355 21.146 49.925 21.5281 49.0532 22.753C48.3804 23.7127 48.1707 24.1125 47.437 25.8663C47.2193 26.3874 46.919 27.0304 46.7537 27.2743C46.4252 27.8306 46.4396 27.8331 43.563 26.9882L41.6606 26.423L41.8087 25.8761C41.9469 25.3819 42.109 25.233 43.5773 24.3172C44.4733 23.7512 45.3205 23.2858 45.4865 23.274C45.6405 23.2464 45.7683 23.2006 45.7783 23.1478C45.7883 23.095 46.0319 21.9646 46.2962 20.6469L46.7847 18.2227L47.3985 18.1256C47.7354 18.0755 48.1757 18.0298 48.3849 18.0256C48.5916 18.0345 48.8972 17.9926 49.0657 17.9675C49.8579 17.7926 51.456 18.2362 51.8251 18.7237ZM58.2687 25.7314C58.6591 25.9498 59.03 26.1921 59.0751 26.2682C59.1372 26.3337 58.897 26.9736 58.5385 27.6883C58.1799 28.403 57.7163 29.3584 57.5136 29.8003L57.1376 30.6074L55.7 30.2601C54.5023 29.9821 54.1715 29.8423 53.8037 29.505C53.5624 29.2855 53.199 29.0035 52.986 28.8707C52.627 28.6442 52.6295 28.631 52.9532 28.4149C53.4509 28.0656 55.0222 26.5267 55.585 25.8341C55.871 25.5023 56.2241 25.2095 56.3588 25.2059C56.96 25.1748 57.5984 25.3412 58.2687 25.7314ZM45.572 28.7996C45.8432 28.8607 45.874 28.9343 45.794 29.3568C45.7416 29.6341 45.7724 30.0214 45.8527 30.2264C46.0346 30.6811 46.0321 30.6943 46.1974 31.7872C46.3381 32.6166 46.1467 35.5158 45.9583 35.6464C45.9244 35.6678 45.6169 35.6412 45.2711 35.5806C44.6804 35.4771 44.6303 35.4274 42.6898 32.7823C41.6017 31.2959 40.6834 29.9347 40.6439 29.7504C40.4649 28.887 41.028 27.799 41.6481 27.8258C41.8404 27.8322 42.7237 28.0415 43.6138 28.2929C44.5065 28.5311 45.3847 28.7668 45.572 28.7996ZM55.6983 31.842C55.8556 32.0333 55.9472 32.3358 55.9147 32.5074L55.8523 32.8375L55.6385 32.4727C55.3608 31.9739 55.1914 31.4532 55.3211 31.4759C55.3643 31.4834 55.541 31.6508 55.6983 31.842ZM59.0549 33.1393C59.3414 33.7488 59.5751 35.031 59.3916 35.1352C59.2564 35.2207 58.3564 32.9761 58.343 32.4963C58.3291 32.0983 58.346 32.0876 58.544 32.2996C58.6681 32.4305 58.8938 32.811 59.0549 33.1393ZM51.8153 33.5625C52.2471 34.0337 52.8857 34.8276 53.2474 35.3547L53.9162 36.3039L53.2979 37.3687C52.9619 37.9645 52.5238 38.7062 52.3292 39.0268L51.9788 39.6201L51.7262 39.303C51.5332 39.0646 51.3559 38.979 50.9976 38.9844C50.3869 38.9866 50.1269 38.7091 50.2318 38.1546C50.3517 37.5209 51.0548 37.0303 51.7445 37.0829L52.2875 37.1235L51.7426 37.0144C50.9577 36.8359 50.2401 37.324 50.0877 38.1294C49.9578 38.8159 50.1722 39.099 50.8549 39.1095C51.225 39.1198 51.4192 39.1947 51.5452 39.3941C51.7903 39.7508 51.7559 39.8539 51.4509 39.8141C51.2035 39.7844 51.201 39.7976 51.4359 39.8933C51.7379 40.028 51.6904 40.2789 51.2103 40.8495C50.764 41.3987 50.243 41.6348 49.7388 41.5465C49.004 41.4178 49.009 41.3914 49.6666 38.8604C50.3217 36.3426 50.8218 33.3066 50.6799 32.6407C50.6033 32.259 50.6058 32.2458 50.8157 32.4735C50.9373 32.6176 51.381 33.1045 51.8153 33.5625ZM64.8792 37.9925C64.2519 40.9926 63.705 43.1747 63.5878 43.086C63.4707 42.9972 63.419 42.4835 63.251 39.7533C63.1847 38.6096 63.0832 37.3369 63.0454 36.9074C63.0051 36.4912 62.9792 36.0774 62.9941 35.9982C63.0241 35.8398 64.3419 35.7978 64.942 35.9302L65.2972 36.0197L64.8792 37.9925ZM67.2429 36.5924C67.6 36.7505 67.8775 36.9355 67.8651 37.0015C67.8501 37.0807 67.1242 38.3994 66.2525 39.9381C65.3808 41.4768 64.5504 42.9545 64.3946 43.2273C64.2532 43.5026 64.0667 43.7018 63.9996 43.6628C63.8631 43.5979 64.3778 40.8782 65.1384 37.7242L65.5596 35.9702L66.0777 36.1428C66.3558 36.2461 66.8689 36.4451 67.2429 36.5924ZM40.0623 32.7449C40.4916 33.2293 41.0864 34.0973 41.378 34.6804C41.6839 35.2659 42.1685 36.0874 42.4732 36.5227C44.813 39.8107 45.8905 41.4316 45.863 41.5769C45.8061 41.7988 45.2865 42.1851 44.947 42.2484C44.8099 42.2653 44.5851 42.4306 44.4493 42.5977C44.3278 42.7674 44.1419 42.8849 44.041 42.8672C43.9258 42.847 43.7085 42.9727 43.5295 43.1323C43.3623 43.3076 42.986 43.4872 42.7092 43.5342C42.4299 43.5944 42.1838 43.7149 42.1638 43.8205C42.1338 43.979 41.5269 44.1182 41.4173 43.9899C41.3935 43.9584 41.5441 43.3983 41.758 42.7401C42.1638 41.4608 42.324 39.9066 42.1598 38.6502C41.9126 36.5745 40.6705 34.0927 39.107 32.523C38.5844 31.9813 38.5179 31.8605 38.6732 31.6695C38.901 31.4093 38.8628 31.3753 40.0623 32.7449ZM33.4716 30.8401C33.5287 30.9319 33.0548 32.6494 32.28 35.0917C31.9355 36.2044 31.6446 36.8764 31.373 37.2107C30.8879 37.8078 30.6299 37.9126 30.7073 37.5033C30.7398 37.3317 30.7096 35.8396 30.6517 34.179C30.5939 32.5184 30.5473 30.9553 30.5491 30.7101L30.5426 30.2724L31.9833 30.5248C32.7757 30.6636 33.4478 30.8087 33.4716 30.8401ZM35.4525 31.5418C35.6686 31.5796 35.469 31.9266 34.4938 33.147C33.9454 33.8421 33.2369 34.7547 32.9045 35.1738C32.5891 35.5823 32.3055 35.9009 32.2792 35.8827C32.2579 35.838 33.6752 30.944 33.7335 30.8723C33.7479 30.8749 34.11 31.0065 34.551 31.1929C34.9801 31.3635 35.3829 31.5159 35.4525 31.5418ZM62.9235 37.4726C62.9847 38.329 63.092 39.8073 63.1551 40.7322C63.2301 41.6729 63.2581 42.469 63.2098 42.4878C63.176 42.5091 62.8614 42.1267 62.5067 41.6417C62.0591 41.0177 61.666 40.1849 61.2494 38.9253C60.2959 36.0984 60.2842 36.3964 61.2236 36.1518C62.1122 35.9392 62.406 35.8815 62.6534 35.9112C62.7423 35.9132 62.8623 36.6162 62.9235 37.4726ZM30.3968 30.4924C30.3868 30.5452 30.4296 32.2851 30.4871 34.3411C30.5564 36.413 30.5705 38.1477 30.5267 38.2219C30.4585 38.3463 30.2082 37.7023 29.258 35.0943C29.0742 34.571 28.8503 33.9453 28.7462 33.7088C28.4414 32.9598 27.6711 30.7379 27.6811 30.6851C27.6886 30.6455 28.0906 30.5658 28.5791 30.5014C29.8499 30.3148 30.4317 30.3076 30.3968 30.4924ZM69.3956 37.8016C69.8167 38.0936 70.4684 38.7397 70.8664 39.2323L71.5765 40.1205L69.4883 41.3234C68.3368 41.981 66.7651 42.8924 65.9806 43.3414C65.2104 43.7931 64.583 44.1196 64.5955 44.0536C64.608 43.9876 65.7442 42.7817 67.127 41.3735C69.9096 38.5464 70.0792 38.3578 69.872 38.4307C69.7924 38.4576 69.398 38.8114 69.008 39.2205C66.2179 42.0872 64.4407 43.8492 64.393 43.7863C64.3573 43.7391 65.1714 42.1903 66.2039 40.3524C68.3371 36.5522 68.0203 36.8105 69.3956 37.8016ZM57.521 35.5032C57.7655 35.9416 57.6579 36.1955 57.3646 35.8577C57.1333 35.5853 57.088 35.1954 57.2753 35.2283C57.3329 35.2384 57.4426 35.3667 57.521 35.5032ZM27.9693 32.0723C28.2503 32.7899 28.6818 33.9703 28.9314 34.6961C29.198 35.4111 29.5988 36.518 29.8346 37.1595C30.073 37.7878 30.2518 38.3374 30.2468 38.3638C30.2218 38.4958 27.9976 35.8556 25.6554 32.8946L24.7786 31.7862L25.3866 31.4835C25.9608 31.2021 27.4312 30.6686 27.4644 30.7289C27.4763 30.7447 27.7052 31.344 27.9693 32.0723ZM60.8482 38.2139C61.4228 39.8968 61.4555 40.0389 61.1597 39.7143C60.8018 39.3243 59.8416 36.769 59.9705 36.5597C60.1576 36.2788 60.2335 36.4285 60.8482 38.2139ZM38.3742 33.7995C39.0949 34.5532 39.8565 35.6415 40.0403 36.1647C40.1557 36.4986 40.3028 36.4289 36.8736 37.5605C35.3024 38.0764 33.589 38.6356 33.0781 38.8189C32.5526 38.9996 32.0661 39.1326 31.994 39.12C31.8067 39.0872 32.4409 38.489 33.3131 37.8916C35.3304 36.5127 38.0415 34.6142 38.3558 34.3692C38.8128 33.9991 37.1028 35.0909 35.0179 36.5125L33.3292 37.6489L34.1655 36.6905C35.9958 34.5696 37.4425 32.9816 37.5433 32.9992C37.6009 33.0093 37.9782 33.3755 38.3742 33.7995ZM26.1444 33.7714C26.9429 34.7433 28.1869 36.2707 28.8876 37.13C29.6027 37.9918 30.148 38.7284 30.1142 38.7498C30.0779 38.7844 29.5416 38.4722 28.9338 38.0656C28.338 37.6748 26.6294 36.5571 25.1576 35.6036C23.6714 34.6476 22.4778 33.7974 22.4928 33.7182C22.5428 33.4542 24.3953 31.9236 24.597 31.9589C24.6403 31.9665 25.334 32.7837 26.1444 33.7714ZM48.0574 36.2733C48.1834 36.4727 48.1352 36.4915 47.7894 36.431C47.2564 36.3376 46.3333 36.6533 46.1819 36.9814C46.0649 37.2064 45.986 37.1517 45.4595 36.4729L44.8735 35.7156L45.8681 35.808C47.6652 35.9864 47.9076 36.0425 48.0574 36.2733ZM72.2385 41.3414C72.4943 41.8772 72.6618 42.3294 72.6449 42.3401C72.3143 42.5141 64.9276 44.3437 64.8825 44.2676C64.8323 44.2179 64.8905 44.1462 64.987 44.1086C65.1316 44.0521 67.7414 42.5314 70.5566 40.8694C71.0612 40.5623 71.5534 40.3211 71.6254 40.3337C71.7119 40.3489 71.9827 40.8055 72.2385 41.3414ZM54.967 38.3021C54.863 38.3794 54.567 38.764 54.2853 39.1512C53.712 39.9783 53.6719 39.8758 54.1981 38.904C54.6074 38.1573 54.8496 37.8997 55.0433 38.0563C55.1078 38.1086 55.0878 38.2142 54.967 38.3021ZM40.5433 37.4395C40.7873 38.2734 40.9432 39.3374 40.8343 39.441C40.7811 39.4863 40.4635 39.5125 40.1222 39.5072C39.2641 39.4797 34.2202 39.4691 33.0396 39.4941C32.5297 39.514 32.09 39.4778 32.0712 39.42C32.0192 39.3017 40.1382 36.5911 40.2529 36.693C40.3055 36.7295 40.4353 37.066 40.5433 37.4395ZM72.7584 42.6055C72.7534 42.6319 72.8319 43.0822 72.9362 43.6324C73.0285 44.1669 73.0419 44.6466 72.9887 44.6919C72.8898 44.7428 68.0326 44.8467 65.9651 44.8391C64.2583 44.813 64.8469 44.5341 68.6695 43.526C71.9166 42.649 72.769 42.471 72.7584 42.6055ZM24.8451 35.6034C26.1853 36.4656 27.8819 37.5676 28.6382 38.0547C29.9471 38.9251 30.3312 39.3334 29.5663 39.0494C29.3433 38.9694 28.1631 38.599 26.9227 38.2316C22.0021 36.7831 20.8626 36.4335 20.8219 36.4127C20.6571 36.2611 22.0727 33.972 22.3032 34.0124C22.3608 34.0224 23.5193 34.7437 24.8451 35.6034ZM60.2818 41.4429C60.93 42.5795 60.843 42.6461 59.9262 41.7489C59.4224 41.2651 59.3584 41.1311 59.5325 40.9979C59.8299 40.7636 59.9232 40.8208 60.2818 41.4429ZM53.5043 40.4466C53.3848 40.6848 53.0997 41.5624 52.8966 42.3998C52.6909 43.2504 52.4577 43.9324 52.4 43.9223C52.256 43.8971 52.299 43.5909 52.5577 42.3813C52.707 41.6709 53.5955 39.8078 53.7001 39.9626C53.7239 39.994 53.6382 40.2109 53.5043 40.4466ZM60.1851 42.1898C61.0856 43.0159 62.0333 44.3004 61.8354 44.4022C61.7703 44.4317 59.3824 43.836 58.4828 43.5557C58.1182 43.4373 57.8908 43.3019 57.9108 43.1963C57.9308 43.0907 57.8574 42.9278 57.774 42.8177C57.6117 42.6529 57.6267 42.5737 57.9084 42.1865C58.62 41.1791 58.8235 40.9692 58.9644 41.0894C59.0553 41.1598 59.6023 41.6512 60.1851 42.1898ZM73.0617 45.2503C73.0724 45.4295 72.9982 46.0576 72.8858 46.6517C72.6434 47.9323 72.8457 47.8859 70.5692 47.1734C64.9056 45.4038 65.004 45.4346 65.0539 45.1706C65.0789 45.0386 65.9833 44.9787 68.5199 44.9457C70.4146 44.923 72.0568 44.8969 72.1771 44.8907C72.752 44.8414 73.0277 44.9579 73.0617 45.2503ZM40.8601 40.8778C40.6795 42.9331 39.239 45.3542 37.31 46.8168C36.2005 47.6455 34.0515 48.6194 33.8753 48.3703C33.6729 48.1029 31.2514 40.7632 31.3315 40.6544C31.3753 40.5803 32.5335 42.0108 33.9293 43.8375C35.3276 45.6511 36.5191 47.142 36.5767 47.1521C36.6343 47.1622 35.5462 45.6758 34.1504 43.849C32.7571 42.009 31.6427 40.5043 31.679 40.4698C31.7467 40.4271 32.6608 41.0237 36.3073 43.463C38.2359 44.7556 39.0905 45.2736 38.9501 45.0717C38.9143 45.0245 37.3185 43.9402 35.3875 42.6608C33.4564 41.3813 31.8681 40.2574 31.8543 40.1731C31.8335 40.0467 32.0233 40.0663 32.5151 40.2207C32.8941 40.3416 33.7172 40.554 34.3461 40.6915C35.287 40.9109 35.1911 40.8668 33.8092 40.461C31.2565 39.7138 31.3629 39.6233 34.9186 39.6324C36.3467 39.637 38.2677 39.6325 39.1621 39.6255C40.2657 39.6142 40.8206 39.6705 40.8752 39.7756C40.9203 39.8517 40.9143 40.3553 40.8601 40.8778ZM23.9347 37.5036C25.4845 37.9661 27.4421 38.5545 28.2747 38.7958C29.1191 39.0529 29.8195 39.2847 29.8552 39.3319C29.9411 39.4288 28.835 39.4532 26.5394 39.3921C25.5611 39.3708 23.7822 39.332 22.5684 39.2966C21.352 39.2745 20.3066 39.2141 20.2565 39.1644C20.1274 39.06 20.5259 36.7973 20.6949 36.6905C20.8496 36.5812 20.7919 36.5711 23.9347 37.5036ZM59.799 44.0727C60.3653 44.2265 60.7994 44.3707 60.7512 44.3896C60.6667 44.4429 57.6433 44.2952 57.1679 44.212C56.8653 44.159 56.8678 44.1457 57.3123 43.8417C57.6893 43.5804 57.8602 43.5421 58.2705 43.6549C58.5393 43.7293 59.2327 43.9189 59.799 44.0727ZM66.0464 45.9037C67.0368 46.2545 70.8174 47.4351 71.7677 47.6834C72.4467 47.8706 72.4993 47.9071 72.4394 48.2239C72.4044 48.4088 72.1942 48.8903 71.9846 49.29C71.5266 50.1373 71.7113 50.1833 69.5291 48.7371C68.682 48.1795 67.3468 47.2909 66.5354 46.7805C64.5323 45.4884 64.4421 45.3362 66.0464 45.9037ZM27.6435 40.3221C26.3935 40.6351 24.3294 41.1601 23.0336 41.4787C20.7096 42.0401 20.6952 42.0375 20.5773 41.7168C20.4568 41.4093 20.1685 39.7083 20.2035 39.5234C20.2209 39.431 21.7573 39.4137 24.3773 39.4908C25.149 39.5032 26.4831 39.5323 27.3437 39.5466C30.166 39.5773 30.1967 39.6509 27.6435 40.3221ZM68.5586 48.2807C69.1019 48.635 69.9897 49.2134 70.5066 49.5495L71.4733 50.1826L70.7923 50.9499C70.4142 51.3747 69.971 51.829 69.8088 51.9779L69.497 52.2098L68.3552 50.8503C65.0084 46.8267 64.4964 46.1505 64.6729 46.0041C64.8301 45.8816 65.1414 46.0452 66.2135 46.7514C66.9553 47.236 68.0154 47.9264 68.5586 48.2807ZM28.1575 41.0669C27.3097 41.614 25.6286 42.7108 24.4233 43.4954L22.2325 44.9257L21.7066 44.1652C21.4139 43.7457 21.0816 43.1419 20.9518 42.8054L20.7253 42.1929L22.9579 41.6428C24.1885 41.3537 26.1418 40.8638 27.2979 40.5753C28.4539 40.2867 29.4654 40.0547 29.5518 40.0699C29.6263 40.0693 29.0027 40.5329 28.1575 41.0669ZM29.1842 41.3831C28.6096 42.0599 27.6375 43.1855 27.0384 43.9126C26.4275 44.624 25.625 45.561 25.2758 45.9908C24.9121 46.4182 24.5559 46.8059 24.4883 46.8486C24.266 47.0006 22.3761 45.3465 22.4311 45.056C22.4611 44.8976 29.9289 40.1223 30.0874 40.15C30.1594 40.1627 29.7563 40.7195 29.1842 41.3831ZM62.3053 45.9303C62.2828 46.0492 59.1595 48.7893 57.3577 50.2878C56.9175 50.6472 56.5882 50.9714 56.624 51.0186C56.6597 51.0658 57.1092 50.7353 57.627 50.2804C61.4491 46.9943 62.4551 46.1612 62.5948 46.1311C62.7006 46.1224 62.7026 46.1909 62.615 46.3392C62.5154 46.4718 62.0849 47.1739 61.6299 47.9263C59.939 50.7264 58.9953 52.2524 58.7863 52.5705L58.5747 52.9017L57.826 52.375C57.4193 52.0855 56.8078 51.5418 56.4499 51.1518C55.8345 50.4711 54.6761 48.7268 54.8089 48.6546C55.5809 48.2715 60.9906 45.8774 61.2724 45.804C61.7446 45.6684 62.3403 45.7455 62.3053 45.9303ZM29.7283 42.2832C27.4528 48.1727 27.3308 48.4241 27.0576 48.2944C26.933 48.2453 26.6429 48.1263 26.4055 48.0438C26.185 47.9506 25.6675 47.6963 25.2941 47.4672L24.5805 47.0694L25.9456 45.4398C26.7093 44.5506 27.5531 43.5526 27.8367 43.234C28.1227 42.9022 28.6804 42.236 29.0998 41.7503C29.9486 40.7259 30.3411 40.3036 30.4007 40.3822C30.4245 40.4137 30.1155 41.2598 29.7283 42.2832ZM66.1605 48.4471C67.1068 49.5813 68.2199 50.9357 68.6154 51.4415L69.3518 52.348L68.4126 52.9064C67.896 53.1978 67.2686 53.5244 67.0156 53.6029L66.5578 53.7409L65.3433 50.0908C64.6796 48.0922 64.1508 46.4037 64.1632 46.3376C64.2032 46.1264 64.4633 46.4039 66.1605 48.4471ZM30.5182 44.795C30.4058 46.7258 30.3046 48.4404 30.3035 48.6039C30.2898 48.8334 30.2053 48.8868 29.847 48.8922C29.2965 48.8912 28.1702 48.7076 27.7868 48.5313L27.5112 48.4148L28.1579 46.7276C28.7847 45.146 30.1558 41.6761 30.4936 40.835L30.655 40.4541L30.6953 40.8703C30.7129 41.0917 30.6306 42.8641 30.5182 44.795ZM32.2673 44.283C32.9028 46.1948 33.4868 47.9066 33.5695 48.0985C33.6404 48.2746 33.6606 48.4827 33.6048 48.5411C33.474 48.6819 31.8951 48.9236 31.1235 48.9112C30.3926 48.9196 30.4434 49.2013 30.6314 45.7696C30.8021 42.7441 30.8766 41.4068 30.8682 40.9006C30.8565 40.1757 31.0716 40.6907 32.2673 44.283ZM60.2879 45.9725C59.8196 46.2451 55.1163 48.3675 54.8852 48.4088C54.7624 48.4282 54.5869 48.0974 54.425 47.5371C53.9675 45.9429 53.9212 46.0302 55.2734 45.8852C56.3851 45.7526 57.7198 45.6999 59.4435 45.7154C60.6166 45.73 60.6573 45.7508 60.2879 45.9725ZM62.1021 50.1505C61.6284 52.1817 61.2027 53.8804 61.1545 53.8992C61.0531 53.9633 59.2689 53.3234 58.9939 53.1251C58.7595 52.9477 58.7376 52.9848 62.1726 47.3393C62.8416 46.2425 62.8391 46.2557 62.9106 46.3501C62.9463 46.3973 62.5927 48.1085 62.1021 50.1505ZM65.1303 49.958C65.7445 51.8252 66.2689 53.4584 66.2872 53.598C66.3261 53.864 65.9429 54.0015 64.6602 54.1723C64.0778 54.2613 64.0227 54.238 63.9881 54.0273C63.9472 53.6928 63.5919 48.57 63.5287 47.3313C63.507 46.6592 63.6052 46.3763 63.8639 46.5035C63.931 46.5425 64.4993 48.1015 65.1303 49.958ZM63.3734 47.5224C63.4201 48.0625 63.516 49.4433 63.5823 50.5871C63.6512 51.7177 63.7527 52.9903 63.793 53.4066C63.8333 53.8229 63.8404 54.1788 63.8235 54.1894C63.6713 54.2855 61.6025 54.1277 61.5335 54.0202C61.4859 53.9573 61.7432 52.5974 62.1032 51.01C62.4631 49.4226 62.838 47.756 62.9255 47.2939C63.0248 46.8475 63.138 46.4854 63.2101 46.498C63.2677 46.5081 63.3437 46.9716 63.3734 47.5224Z" fill="#1B6B82"/>
<path d="M82.394 12.579C82.394 11.6457 82.5474 11.0723 82.854 10.859C83.214 10.7523 83.694 10.699 84.294 10.699C85.0407 10.699 85.714 10.7923 86.314 10.979C86.3807 11.2323 86.414 11.4657 86.414 11.679C86.414 11.7857 86.4074 11.8457 86.394 11.859C86.6207 11.7923 86.934 11.6923 87.334 11.559C87.7474 11.4257 88.0407 11.3323 88.214 11.279C88.3874 11.2257 88.614 11.159 88.894 11.079C89.1874 10.9857 89.4074 10.9257 89.554 10.899C89.714 10.859 89.8874 10.8257 90.074 10.799C90.274 10.7723 90.4474 10.759 90.594 10.759C91.1807 10.759 91.7007 10.9257 92.154 11.259C92.6207 11.579 92.9807 11.9857 93.234 12.479C93.5007 12.9723 93.694 13.4657 93.814 13.959C93.9474 14.4523 94.014 14.9057 94.014 15.319C94.014 16.2123 93.734 16.9923 93.174 17.659C92.6274 18.3257 91.9674 18.8723 91.194 19.299C92.114 19.939 92.9807 20.599 93.794 21.279C94.6074 21.9457 95.034 22.379 95.074 22.579C95.1807 22.5257 95.3007 22.499 95.434 22.499C95.5807 22.499 95.754 22.539 95.954 22.619C96.154 22.8057 96.254 23.1257 96.254 23.579C96.254 24.0323 96.1674 24.3457 95.994 24.519C95.554 24.7457 94.6274 24.859 93.214 24.859C92.534 24.859 91.8674 24.7457 91.214 24.519C91.0807 24.4657 90.9674 24.3323 90.874 24.119C90.7807 23.8923 90.734 23.6457 90.734 23.379C90.734 23.0457 90.8074 22.8057 90.954 22.659C91.0474 22.579 91.1607 22.539 91.294 22.539C91.3874 22.539 91.514 22.5657 91.674 22.619C91.5274 22.2723 91.3074 21.9657 91.014 21.699C90.7207 21.419 90.414 21.2057 90.094 21.059C89.774 20.899 89.4274 20.7657 89.054 20.659C88.694 20.539 88.374 20.459 88.094 20.419C87.8274 20.379 87.5874 20.3523 87.374 20.339L87.074 20.299C87.1407 20.6323 87.174 20.979 87.174 21.339C87.174 21.6857 87.1407 22.0123 87.074 22.319C87.1674 22.279 87.294 22.259 87.454 22.259C87.8807 22.259 88.2074 22.379 88.434 22.619C88.4874 22.739 88.514 23.0523 88.514 23.559C88.514 24.0523 88.4874 24.359 88.434 24.479C88.354 24.7457 87.1807 24.879 84.914 24.879C84.1007 24.879 83.5474 24.8523 83.254 24.799C82.974 24.7323 82.814 24.6257 82.774 24.479C82.7207 24.359 82.694 24.0523 82.694 23.559C82.694 23.0523 82.7207 22.739 82.774 22.619C82.8407 22.5123 82.9874 22.4257 83.214 22.359C83.454 22.2923 83.6807 22.259 83.894 22.259C84.054 22.259 84.1607 22.2657 84.214 22.279C84.214 22.0523 84.2074 21.6323 84.194 21.019C84.1807 20.4057 84.174 19.7723 84.174 19.119C84.174 16.759 84.2407 15.2057 84.374 14.459C84.214 14.5257 84.0074 14.559 83.754 14.559C83.3674 14.559 83.1007 14.4857 82.954 14.339C82.5807 14.259 82.394 13.6723 82.394 12.579ZM86.814 16.179C86.814 16.739 86.954 17.1723 87.234 17.479C87.5274 17.7857 87.894 17.939 88.334 17.939C88.974 17.939 89.594 17.6657 90.194 17.119C90.8074 16.559 91.114 15.8923 91.114 15.119C91.114 14.5857 90.9607 14.139 90.654 13.779C90.3607 13.4057 89.9607 13.219 89.454 13.219C88.8007 13.219 88.194 13.5123 87.634 14.099C87.0874 14.6857 86.814 15.379 86.814 16.179ZM96.549 23.199C96.549 22.519 96.589 22.1323 96.669 22.039C96.829 21.9457 97.029 21.8857 97.269 21.859C97.429 21.8323 97.7757 21.819 98.309 21.819C98.229 20.979 98.189 20.0657 98.189 19.079C98.189 17.999 98.2557 17.3123 98.389 17.019C97.7357 17.019 97.3024 16.9923 97.089 16.939C97.1024 16.579 97.149 16.199 97.229 15.799C97.2557 15.6257 97.3357 15.2857 97.469 14.779C97.9624 14.6857 98.789 14.639 99.949 14.639C100.416 14.639 100.842 14.6657 101.229 14.719C101.629 14.7723 101.929 14.839 102.129 14.919C102.342 14.9857 102.449 15.0523 102.449 15.119C102.476 15.119 102.489 15.359 102.489 15.839C102.489 16.599 102.422 17.079 102.289 17.279C102.236 17.359 102.076 17.399 101.809 17.399C101.316 17.399 101.002 17.3657 100.869 17.299C100.722 18.2323 100.649 19.4457 100.649 20.939C100.649 21.5523 100.669 21.8723 100.709 21.899C100.789 21.8857 100.902 21.879 101.049 21.879C101.529 21.879 101.916 21.9523 102.209 22.099C102.249 22.1523 102.269 22.2723 102.269 22.459C102.269 22.7923 102.222 23.1923 102.129 23.659C102.036 24.1257 101.902 24.4457 101.729 24.619C101.569 24.779 101.049 24.859 100.169 24.859C98.0757 24.859 96.9157 24.6657 96.689 24.279C96.5957 24.1057 96.549 23.7457 96.549 23.199ZM98.149 10.739C98.149 10.3657 98.349 10.179 98.749 10.179C99.0824 10.179 99.4424 10.279 99.829 10.479C100.109 10.199 100.482 10.059 100.949 10.059C101.242 10.059 101.502 10.159 101.729 10.359C101.956 10.559 102.069 10.8323 102.069 11.179C102.069 11.3523 102.029 11.519 101.949 11.679C101.882 11.839 101.809 11.9723 101.729 12.079C101.649 12.1857 101.516 12.3123 101.329 12.459C101.142 12.5923 100.996 12.6923 100.889 12.759C100.796 12.8123 100.622 12.9123 100.369 13.059C100.116 13.1923 99.9557 13.279 99.889 13.319C99.369 12.9323 98.949 12.499 98.629 12.019C98.309 11.5257 98.149 11.099 98.149 10.739ZM103.837 19.779C103.837 18.4323 104.23 17.239 105.017 16.199C105.817 15.1457 106.89 14.619 108.237 14.619C108.717 14.619 109.237 14.699 109.797 14.859C109.797 14.8323 109.784 14.5723 109.757 14.079C109.744 13.5723 109.737 13.039 109.737 12.479C109.737 11.159 109.77 10.4323 109.837 10.299C110.304 9.89901 111.324 9.69901 112.897 9.69901C113.23 9.69901 113.53 9.71234 113.797 9.73901C114.064 9.76568 114.257 9.79901 114.377 9.83901C114.51 9.87901 114.617 9.91901 114.697 9.95901C114.777 9.99901 114.824 10.0323 114.837 10.059L114.877 10.079C114.93 10.199 114.957 10.5723 114.957 11.199C114.957 11.839 114.93 12.219 114.877 12.339C114.437 12.579 113.75 12.699 112.817 12.699C112.657 12.699 112.55 12.6923 112.497 12.679C112.497 13.359 112.51 14.3857 112.537 15.759C112.577 17.1323 112.597 18.1457 112.597 18.799C112.597 19.639 112.577 20.4723 112.537 21.299C112.63 21.2457 112.87 21.219 113.257 21.219C114.017 21.219 114.504 21.2857 114.717 21.419C114.824 21.499 114.877 22.0657 114.877 23.119C114.877 23.7057 114.857 24.079 114.817 24.239C114.497 24.6523 113.71 24.859 112.457 24.859C111.697 24.859 110.997 24.8323 110.357 24.779C110.29 24.5257 110.257 24.2923 110.257 24.079C110.257 23.9723 110.264 23.9123 110.277 23.899C110.064 23.9657 109.63 24.1723 108.977 24.519C108.337 24.8523 107.797 25.019 107.357 25.019C106.65 25.019 106.017 24.7323 105.457 24.159C104.897 23.5857 104.484 22.9057 104.217 22.119C103.964 21.3323 103.837 20.5523 103.837 19.779ZM106.337 19.559C106.337 20.3857 106.544 21.0523 106.957 21.559C107.384 22.0657 107.85 22.319 108.357 22.319C108.677 22.319 109.03 22.2323 109.417 22.059C109.804 21.8723 109.997 21.719 109.997 21.599C109.984 21.039 109.97 20.459 109.957 19.859C109.944 19.259 109.93 18.799 109.917 18.479C109.917 18.159 109.91 17.9123 109.897 17.739C109.897 17.4857 109.71 17.2457 109.337 17.019C108.977 16.779 108.59 16.659 108.177 16.659C107.724 16.659 107.35 16.839 107.057 17.199C106.764 17.5457 106.57 17.9257 106.477 18.339C106.384 18.739 106.337 19.1457 106.337 19.559ZM115.926 20.679C115.926 19.1723 116.466 17.7923 117.546 16.539C118.639 15.2857 119.859 14.659 121.206 14.659C122.033 14.659 122.739 14.9123 123.326 15.419C123.913 15.9257 124.206 16.5857 124.206 17.399C124.206 18.3457 123.813 19.159 123.026 19.839C122.253 20.5057 121.226 20.839 119.946 20.839C119.213 20.839 118.699 20.7257 118.406 20.499C118.419 21.139 118.646 21.6523 119.086 22.039C119.526 22.4123 120.033 22.599 120.606 22.599C121.353 22.599 121.959 22.3057 122.426 21.719C122.426 21.6123 122.446 21.499 122.486 21.379C123.073 20.899 123.706 20.659 124.386 20.659C124.519 20.659 124.619 20.6657 124.686 20.679C125.566 21.159 126.106 21.9457 126.306 23.039C126.293 23.1457 126.239 23.259 126.146 23.379C126.066 23.499 125.979 23.6057 125.886 23.699C125.793 23.779 125.659 23.879 125.486 23.999C125.313 24.1057 125.173 24.1857 125.066 24.239C124.973 24.2923 124.826 24.3723 124.626 24.479C124.439 24.5857 124.333 24.6457 124.306 24.659C124.226 24.659 124.159 24.6523 124.106 24.639C124.053 24.6123 123.999 24.579 123.946 24.539C123.906 24.4857 123.879 24.4523 123.866 24.439C123.853 24.4123 123.826 24.359 123.786 24.279C123.746 24.1857 123.719 24.1323 123.706 24.119C122.719 24.7723 121.659 25.099 120.526 25.099C119.259 25.099 118.173 24.6923 117.266 23.879C116.373 23.0657 115.926 21.999 115.926 20.679ZM119.046 18.339C119.046 18.779 119.366 18.999 120.006 18.999C120.486 18.999 120.946 18.8857 121.386 18.659C121.826 18.4323 122.046 18.1523 122.046 17.819C122.046 17.5923 121.966 17.359 121.806 17.119C121.659 16.8657 121.419 16.739 121.086 16.739C120.673 16.739 120.226 16.9057 119.746 17.239C119.279 17.5723 119.046 17.939 119.046 18.339ZM131.2 24.779C131.2 24.2457 131.254 23.679 131.36 23.079C131.48 22.4657 131.68 21.819 131.96 21.139C132.24 20.4457 132.587 19.819 133 19.259C133.427 18.699 133.98 18.2123 134.66 17.799C135.34 17.3857 136.1 17.1323 136.94 17.039C137.474 16.9857 137.88 16.939 138.16 16.899C138.44 16.8457 138.727 16.7657 139.02 16.659C139.327 16.5523 139.54 16.4057 139.66 16.219C139.794 16.0323 139.86 15.799 139.86 15.519C139.86 14.8657 139.54 14.279 138.9 13.759C138.274 13.239 137.514 12.979 136.62 12.979C135.527 12.979 134.78 13.3523 134.38 14.099C134.38 14.339 134.34 14.559 134.26 14.759C134.047 14.9057 133.554 14.979 132.78 14.979C132.7 14.979 132.627 14.979 132.56 14.979C132.494 14.9657 132.447 14.959 132.42 14.959C131.874 14.839 131.6 14.0857 131.6 12.699C131.6 12.0057 131.64 11.539 131.72 11.299C131.827 11.219 132.074 11.1457 132.46 11.079C132.847 11.0123 133.214 10.979 133.56 10.979C133.854 10.979 134.027 11.0057 134.08 11.059C134.147 11.1123 134.194 11.159 134.22 11.199C134.247 11.2257 134.267 11.2523 134.28 11.279C134.294 11.2923 134.307 11.3323 134.32 11.399C134.334 11.4523 134.354 11.5123 134.38 11.579C135.354 10.9657 136.42 10.659 137.58 10.659C139.047 10.659 140.22 11.139 141.1 12.099C141.98 13.0457 142.42 14.179 142.42 15.499C142.42 17.739 140.954 18.9857 138.02 19.239C137.674 19.2657 137.387 19.2923 137.16 19.319C136.934 19.3457 136.634 19.419 136.26 19.539C135.9 19.6457 135.607 19.779 135.38 19.939C135.167 20.099 134.974 20.339 134.8 20.659C134.627 20.9657 134.54 21.3323 134.54 21.759C134.54 21.9857 134.554 22.1657 134.58 22.299C135.487 22.4857 136.607 22.579 137.94 22.579C138.674 22.579 139.38 22.4457 140.06 22.179C140.047 22.139 140.04 22.0923 140.04 22.039C140.04 21.9723 140.054 21.9057 140.08 21.839C140.107 21.7723 140.147 21.6923 140.2 21.599C140.254 21.5057 140.294 21.439 140.32 21.399C140.547 21.2657 140.854 21.199 141.24 21.199C141.614 21.199 141.914 21.2657 142.14 21.399C142.5 21.599 142.68 22.099 142.68 22.899C142.68 23.4057 142.634 23.8523 142.54 24.239C142.447 24.6257 142.36 24.8857 142.28 25.019C142.2 25.1523 142.14 25.2323 142.1 25.259C141.767 25.3257 141.36 25.359 140.88 25.359C140.227 25.359 139.88 25.2923 139.84 25.159C139.72 24.679 139.654 24.3857 139.64 24.279C139.16 24.679 138.174 24.879 136.68 24.879C136.32 24.879 135.42 24.839 133.98 24.759C133.967 24.9723 133.914 25.0923 133.82 25.119C133.7 25.279 133.227 25.359 132.4 25.359C131.814 25.359 131.42 25.3257 131.22 25.259C131.207 25.1657 131.2 25.0057 131.2 24.779ZM147.772 15.359C147.772 15.0657 147.812 14.879 147.892 14.799C148.132 14.759 148.445 14.739 148.832 14.739H149.272V10.979C149.965 10.9257 150.412 10.899 150.612 10.899C150.812 10.899 151.219 10.9257 151.832 10.979L152.032 14.779C153.499 14.8457 154.339 14.939 154.552 15.059C154.752 15.4057 154.852 15.939 154.852 16.659C154.852 16.9523 154.812 17.139 154.732 17.219C154.319 17.2723 153.845 17.299 153.312 17.299C153.139 17.299 152.879 17.299 152.532 17.299C152.185 17.2857 151.925 17.279 151.752 17.279C151.752 17.719 151.745 18.2723 151.732 18.939C151.732 19.6057 151.732 20.079 151.732 20.359C151.732 21.399 151.799 22.039 151.932 22.279C152.079 22.5057 152.465 22.619 153.092 22.619C153.332 22.619 153.532 22.6057 153.692 22.579L153.572 22.159L155.412 21.739C155.545 22.1257 155.612 22.579 155.612 23.099C155.612 23.9657 155.525 24.5123 155.352 24.739C154.045 24.9257 152.959 25.019 152.092 25.019C150.959 25.019 150.212 24.859 149.852 24.539C149.692 24.3923 149.565 24.199 149.472 23.959C149.379 23.719 149.312 23.379 149.272 22.939C149.245 22.4857 149.225 22.039 149.212 21.599C149.199 21.1457 149.179 20.4923 149.152 19.639C149.125 18.7857 149.092 17.979 149.052 17.219C148.625 17.179 148.299 17.0923 148.072 16.959C147.872 16.6123 147.772 16.079 147.772 15.359ZM155.97 12.079C155.97 11.0657 156.057 10.4457 156.23 10.219C156.617 9.97901 157.464 9.85901 158.77 9.85901C159.157 9.85901 159.597 9.87901 160.09 9.91901C160.584 9.95901 160.844 9.99234 160.87 10.019C161.004 10.2457 161.07 11.7657 161.07 14.579C161.07 15.459 161.05 15.9523 161.01 16.059C162.25 15.1257 163.537 14.659 164.87 14.659C165.99 14.659 166.897 15.0257 167.59 15.759C168.297 16.4923 168.65 17.6457 168.65 19.219C168.65 20.499 168.61 21.2923 168.53 21.599C168.557 21.5723 168.624 21.559 168.73 21.559C169.077 21.559 169.384 21.5923 169.65 21.659C169.77 21.7923 169.83 22.159 169.83 22.759C169.83 23.679 169.764 24.2457 169.63 24.459C168.63 24.7257 167.717 24.859 166.89 24.859C166.104 24.859 165.37 24.739 164.69 24.499C164.597 24.4323 164.497 24.199 164.39 23.799C164.284 23.3857 164.23 23.039 164.23 22.759C164.23 22.5057 164.35 22.219 164.59 21.899C164.737 21.8057 164.93 21.759 165.17 21.759C165.357 21.759 165.537 21.7923 165.71 21.859C165.71 21.819 165.71 21.4657 165.71 20.799C165.724 20.119 165.73 19.739 165.73 19.659C165.73 18.8457 165.504 18.1523 165.05 17.579C164.597 16.9923 164.01 16.699 163.29 16.699C161.97 16.699 161.31 17.8123 161.31 20.039C161.31 20.2923 161.33 20.939 161.37 21.979C161.53 21.8857 161.737 21.839 161.99 21.839C162.23 21.839 162.377 21.8723 162.43 21.939C162.564 21.939 162.63 22.2057 162.63 22.739C162.63 22.8723 162.624 22.979 162.61 23.059L162.53 23.479C162.504 23.679 162.47 23.9123 162.43 24.179C161.404 24.6323 160.07 24.859 158.43 24.859C157.297 24.859 156.59 24.6723 156.31 24.299C156.19 24.139 156.13 23.9057 156.13 23.599C156.13 22.4657 156.677 21.899 157.77 21.899C158.064 21.899 158.324 21.9257 158.55 21.979C158.484 18.9123 158.45 16.239 158.45 13.959C158.45 13.159 158.464 12.719 158.49 12.639C158.437 12.639 158.357 12.6457 158.25 12.659C158.144 12.659 158.044 12.659 157.95 12.659C157.057 12.659 156.424 12.6323 156.05 12.579C155.997 12.5257 155.97 12.359 155.97 12.079ZM170.906 20.679C170.906 19.1723 171.446 17.7923 172.526 16.539C173.62 15.2857 174.84 14.659 176.186 14.659C177.013 14.659 177.72 14.9123 178.306 15.419C178.893 15.9257 179.186 16.5857 179.186 17.399C179.186 18.3457 178.793 19.159 178.006 19.839C177.233 20.5057 176.206 20.839 174.926 20.839C174.193 20.839 173.68 20.7257 173.386 20.499C173.4 21.139 173.626 21.6523 174.066 22.039C174.506 22.4123 175.013 22.599 175.586 22.599C176.333 22.599 176.94 22.3057 177.406 21.719C177.406 21.6123 177.426 21.499 177.466 21.379C178.053 20.899 178.686 20.659 179.366 20.659C179.5 20.659 179.6 20.6657 179.666 20.679C180.546 21.159 181.086 21.9457 181.286 23.039C181.273 23.1457 181.22 23.259 181.126 23.379C181.046 23.499 180.96 23.6057 180.866 23.699C180.773 23.779 180.64 23.879 180.466 23.999C180.293 24.1057 180.153 24.1857 180.046 24.239C179.953 24.2923 179.806 24.3723 179.606 24.479C179.42 24.5857 179.313 24.6457 179.286 24.659C179.206 24.659 179.14 24.6523 179.086 24.639C179.033 24.6123 178.98 24.579 178.926 24.539C178.886 24.4857 178.86 24.4523 178.846 24.439C178.833 24.4123 178.806 24.359 178.766 24.279C178.726 24.1857 178.7 24.1323 178.686 24.119C177.7 24.7723 176.64 25.099 175.506 25.099C174.24 25.099 173.153 24.6923 172.246 23.879C171.353 23.0657 170.906 21.999 170.906 20.679ZM174.026 18.339C174.026 18.779 174.346 18.999 174.986 18.999C175.466 18.999 175.926 18.8857 176.366 18.659C176.806 18.4323 177.026 18.1523 177.026 17.819C177.026 17.5923 176.946 17.359 176.786 17.119C176.64 16.8657 176.4 16.739 176.066 16.739C175.653 16.739 175.206 16.9057 174.726 17.239C174.26 17.5723 174.026 17.939 174.026 18.339ZM97.2015 46.679C97.2015 46.399 97.2282 46.2323 97.2815 46.179C97.6549 46.1257 97.9549 46.099 98.1815 46.099C98.2215 46.099 98.2882 46.1057 98.3815 46.119C98.4882 46.119 98.5682 46.119 98.6215 46.119C98.5282 44.919 98.4815 43.8723 98.4815 42.979C98.4815 41.779 98.5682 39.979 98.7415 37.579C98.3015 37.699 98.0015 37.759 97.8415 37.759C97.7215 37.759 97.6415 37.7457 97.6015 37.719C97.3882 37.559 97.2815 37.1857 97.2815 36.599C97.2815 35.9723 97.3682 35.5257 97.5415 35.259C98.3949 34.859 99.8549 34.659 101.922 34.659C103.215 34.659 104.562 34.7323 105.962 34.879C107.362 35.0257 108.335 35.1923 108.882 35.379C109.015 36.0457 109.082 36.559 109.082 36.919C109.082 37.5457 108.928 38.059 108.622 38.459C108.355 38.5257 108.075 38.559 107.782 38.559C107.022 38.559 106.535 38.3457 106.322 37.919L106.382 37.259C106.115 37.0857 105.422 36.999 104.302 36.999C103.915 36.999 103.435 37.019 102.862 37.059C102.302 37.099 102.015 37.139 102.002 37.179C101.815 37.8323 101.642 38.8523 101.482 40.239C102.628 40.239 103.208 40.219 103.222 40.179C103.222 39.8457 103.288 39.6123 103.422 39.479C103.848 39.3857 104.088 39.339 104.142 39.339C104.528 39.339 104.882 39.4057 105.202 39.539C105.442 39.819 105.562 40.3257 105.562 41.059C105.562 41.4723 105.522 41.8723 105.442 42.259C105.375 42.6323 105.288 42.8723 105.182 42.979C105.062 43.0723 104.682 43.119 104.042 43.119C103.682 43.119 103.462 43.079 103.382 42.999C103.355 42.9723 103.322 42.939 103.282 42.899C103.255 42.8457 103.235 42.8123 103.222 42.799C103.208 42.7723 103.195 42.7457 103.182 42.719C103.168 42.679 103.155 42.639 103.142 42.599C103.142 42.559 103.142 42.5057 103.142 42.439H101.342C101.342 43.6257 101.375 44.8857 101.442 46.219C101.562 46.179 101.755 46.159 102.022 46.159C102.368 46.159 102.562 46.1857 102.602 46.239C102.735 46.4123 102.802 46.8923 102.802 47.679C102.802 48.319 102.788 48.639 102.762 48.639C102.335 48.9723 101.508 49.139 100.282 49.139C98.9215 49.139 97.9815 49.0057 97.4615 48.739C97.2882 48.5123 97.2015 47.8257 97.2015 46.679ZM108.89 40.959C108.89 40.039 108.957 39.4723 109.09 39.259C110.09 38.9923 110.957 38.859 111.69 38.859C112.21 38.859 112.81 38.979 113.49 39.219C113.584 39.2857 113.684 39.5257 113.79 39.939C113.897 40.339 113.95 40.6857 113.95 40.979C113.95 41.419 113.83 41.799 113.59 42.119C113.444 42.2123 113.25 42.259 113.01 42.259C112.824 42.259 112.644 42.2257 112.47 42.159C112.47 42.199 112.464 42.3723 112.45 42.679C112.45 42.9857 112.45 43.179 112.45 43.259C112.45 44.099 112.677 44.839 113.13 45.479C113.597 46.1057 114.177 46.419 114.87 46.419C115.47 46.419 116.017 46.179 116.51 45.699C117.017 45.2057 117.27 44.439 117.27 43.399C117.27 43.0257 117.25 42.539 117.21 41.939C117.05 42.0323 116.844 42.079 116.59 42.079C116.35 42.079 116.204 42.0457 116.15 41.979C116.017 41.979 115.95 41.7123 115.95 41.179C115.95 41.059 116.017 40.5123 116.15 39.539C117.11 39.0723 118.35 38.839 119.87 38.839C121.017 38.839 121.75 39.0323 122.07 39.419C122.19 39.579 122.25 39.859 122.25 40.259C122.25 41.0857 122.07 41.599 121.71 41.799C121.23 41.919 120.83 41.979 120.51 41.979C120.324 41.979 120.164 41.9657 120.03 41.939C120.03 42.3257 120.044 42.9523 120.07 43.819C120.097 44.6723 120.11 45.319 120.11 45.759C120.164 45.759 120.384 45.7457 120.77 45.719C121.157 45.679 121.384 45.659 121.45 45.659C121.504 45.659 121.584 45.6723 121.69 45.699C121.797 45.7257 121.877 45.739 121.93 45.739C121.984 45.7923 122.01 45.9323 122.01 46.159C122.01 46.519 121.957 46.9723 121.85 47.519C121.744 48.0523 121.644 48.379 121.55 48.499C121.15 48.739 120.39 48.859 119.27 48.859C118.55 48.859 118.07 48.8123 117.83 48.719C117.59 48.6257 117.47 48.419 117.47 48.099C117.47 47.699 117.504 47.299 117.57 46.899C116.317 48.339 114.964 49.059 113.51 49.059C111.217 49.059 110.07 47.4457 110.07 44.219C110.07 43.579 110.11 42.9523 110.19 42.339C110.177 42.3523 110.117 42.359 110.01 42.359C109.81 42.359 109.497 42.3257 109.07 42.259C108.95 42.1257 108.89 41.6923 108.89 40.959ZM123.163 39.359C123.163 39.0657 123.203 38.879 123.283 38.799C123.523 38.759 123.836 38.739 124.223 38.739H124.663V34.979C125.356 34.9257 125.803 34.899 126.003 34.899C126.203 34.899 126.609 34.9257 127.223 34.979L127.423 38.779C128.889 38.8457 129.729 38.939 129.943 39.059C130.143 39.4057 130.243 39.939 130.243 40.659C130.243 40.9523 130.203 41.139 130.123 41.219C129.709 41.2723 129.236 41.299 128.703 41.299C128.529 41.299 128.269 41.299 127.923 41.299C127.576 41.2857 127.316 41.279 127.143 41.279C127.143 41.719 127.136 42.2723 127.123 42.939C127.123 43.6057 127.123 44.079 127.123 44.359C127.123 45.399 127.189 46.039 127.323 46.279C127.469 46.5057 127.856 46.619 128.483 46.619C128.723 46.619 128.923 46.6057 129.083 46.579L128.963 46.159L130.803 45.739C130.936 46.1257 131.003 46.579 131.003 47.099C131.003 47.9657 130.916 48.5123 130.743 48.739C129.436 48.9257 128.349 49.019 127.483 49.019C126.349 49.019 125.603 48.859 125.243 48.539C125.083 48.3923 124.956 48.199 124.863 47.959C124.769 47.719 124.703 47.379 124.663 46.939C124.636 46.4857 124.616 46.039 124.603 45.599C124.589 45.1457 124.569 44.4923 124.543 43.639C124.516 42.7857 124.483 41.979 124.443 41.219C124.016 41.179 123.689 41.0923 123.463 40.959C123.263 40.6123 123.163 40.079 123.163 39.359ZM131.781 40.959C131.781 40.039 131.848 39.4723 131.981 39.259C132.981 38.9923 133.848 38.859 134.581 38.859C135.101 38.859 135.701 38.979 136.381 39.219C136.474 39.2857 136.574 39.5257 136.681 39.939C136.788 40.339 136.841 40.6857 136.841 40.979C136.841 41.419 136.721 41.799 136.481 42.119C136.334 42.2123 136.141 42.259 135.901 42.259C135.714 42.259 135.534 42.2257 135.361 42.159C135.361 42.199 135.354 42.3723 135.341 42.679C135.341 42.9857 135.341 43.179 135.341 43.259C135.341 44.099 135.568 44.839 136.021 45.479C136.488 46.1057 137.068 46.419 137.761 46.419C138.361 46.419 138.908 46.179 139.401 45.699C139.908 45.2057 140.161 44.439 140.161 43.399C140.161 43.0257 140.141 42.539 140.101 41.939C139.941 42.0323 139.734 42.079 139.481 42.079C139.241 42.079 139.094 42.0457 139.041 41.979C138.908 41.979 138.841 41.7123 138.841 41.179C138.841 41.059 138.908 40.5123 139.041 39.539C140.001 39.0723 141.241 38.839 142.761 38.839C143.908 38.839 144.641 39.0323 144.961 39.419C145.081 39.579 145.141 39.859 145.141 40.259C145.141 41.0857 144.961 41.599 144.601 41.799C144.121 41.919 143.721 41.979 143.401 41.979C143.214 41.979 143.054 41.9657 142.921 41.939C142.921 42.3257 142.934 42.9523 142.961 43.819C142.988 44.6723 143.001 45.319 143.001 45.759C143.054 45.759 143.274 45.7457 143.661 45.719C144.048 45.679 144.274 45.659 144.341 45.659C144.394 45.659 144.474 45.6723 144.581 45.699C144.688 45.7257 144.768 45.739 144.821 45.739C144.874 45.7923 144.901 45.9323 144.901 46.159C144.901 46.519 144.848 46.9723 144.741 47.519C144.634 48.0523 144.534 48.379 144.441 48.499C144.041 48.739 143.281 48.859 142.161 48.859C141.441 48.859 140.961 48.8123 140.721 48.719C140.481 48.6257 140.361 48.419 140.361 48.099C140.361 47.699 140.394 47.299 140.461 46.899C139.208 48.339 137.854 49.059 136.401 49.059C134.108 49.059 132.961 47.4457 132.961 44.219C132.961 43.579 133.001 42.9523 133.081 42.339C133.068 42.3523 133.008 42.359 132.901 42.359C132.701 42.359 132.388 42.3257 131.961 42.259C131.841 42.1257 131.781 41.6923 131.781 40.959ZM146.613 40.119C146.613 39.5723 146.653 39.1857 146.733 38.959C147.493 38.7323 148.233 38.619 148.953 38.619C149.82 38.619 150.487 38.799 150.953 39.159C150.94 39.3857 150.933 39.7257 150.933 40.179L151.013 40.019C151.053 39.9123 151.127 39.7857 151.233 39.639C151.353 39.479 151.493 39.3257 151.653 39.179C151.813 39.019 152.04 38.8857 152.333 38.779C152.627 38.6723 152.953 38.619 153.313 38.619C154.327 38.619 155.187 39.0523 155.893 39.919C155.8 40.5057 155.567 40.9523 155.193 41.259C154.82 41.5657 154.447 41.7323 154.073 41.759C153.58 41.4123 153.107 41.239 152.653 41.239C151.333 41.239 150.673 42.079 150.673 43.759C150.673 44.3323 150.747 44.959 150.893 45.639C150.92 45.5723 151.107 45.539 151.453 45.539C151.853 45.539 152.1 45.5857 152.193 45.679C152.353 45.9323 152.433 46.3457 152.433 46.919C152.433 47.7857 152.28 48.3523 151.973 48.619C151.293 48.7657 150.473 48.839 149.513 48.839C147.94 48.839 147.027 48.6923 146.773 48.399C146.733 48.239 146.713 47.8323 146.713 47.179C146.713 46.2457 146.753 45.7457 146.833 45.679C146.927 45.559 147.187 45.499 147.613 45.499C147.92 45.499 148.147 45.5457 148.293 45.639C148.173 45.3323 148.113 44.299 148.113 42.539C148.113 41.9523 148.133 41.619 148.173 41.539C148.013 41.5657 147.867 41.579 147.733 41.579C147.253 41.579 146.92 41.459 146.733 41.219C146.653 41.019 146.613 40.6523 146.613 40.119ZM156.219 44.679C156.219 43.1723 156.759 41.7923 157.839 40.539C158.932 39.2857 160.152 38.659 161.499 38.659C162.326 38.659 163.032 38.9123 163.619 39.419C164.206 39.9257 164.499 40.5857 164.499 41.399C164.499 42.3457 164.106 43.159 163.319 43.839C162.546 44.5057 161.519 44.839 160.239 44.839C159.506 44.839 158.992 44.7257 158.699 44.499C158.712 45.139 158.939 45.6523 159.379 46.039C159.819 46.4123 160.326 46.599 160.899 46.599C161.646 46.599 162.252 46.3057 162.719 45.719C162.719 45.6123 162.739 45.499 162.779 45.379C163.366 44.899 163.999 44.659 164.679 44.659C164.812 44.659 164.912 44.6657 164.979 44.679C165.859 45.159 166.399 45.9457 166.599 47.039C166.586 47.1457 166.532 47.259 166.439 47.379C166.359 47.499 166.272 47.6057 166.179 47.699C166.086 47.779 165.952 47.879 165.779 47.999C165.606 48.1057 165.466 48.1857 165.359 48.239C165.266 48.2923 165.119 48.3723 164.919 48.479C164.732 48.5857 164.626 48.6457 164.599 48.659C164.519 48.659 164.452 48.6523 164.399 48.639C164.346 48.6123 164.292 48.579 164.239 48.539C164.199 48.4857 164.172 48.4523 164.159 48.439C164.146 48.4123 164.119 48.359 164.079 48.279C164.039 48.1857 164.012 48.1323 163.999 48.119C163.012 48.7723 161.952 49.099 160.819 49.099C159.552 49.099 158.466 48.6923 157.559 47.879C156.666 47.0657 156.219 45.999 156.219 44.679ZM159.339 42.339C159.339 42.779 159.659 42.999 160.299 42.999C160.779 42.999 161.239 42.8857 161.679 42.659C162.119 42.4323 162.339 42.1523 162.339 41.819C162.339 41.5923 162.259 41.359 162.099 41.119C161.952 40.8657 161.712 40.739 161.379 40.739C160.966 40.739 160.519 40.9057 160.039 41.239C159.572 41.5723 159.339 41.939 159.339 42.339Z" fill="#1B6B82"/>
<path d="M134.496 55.1012C124.85 53.6739 111.462 53.5345 101.209 54.8285C78.1667 57.9277 59.8777 57.7502 43.0515 54.2139C38.0263 53.1341 35.5057 52.9446 37.4154 53.8727C49.2049 59.0126 74.9191 61.4001 92.2751 59.071C117.434 55.4289 136.075 56.4587 153.763 62.3311L165.165 66.0377L153.568 61.1189C147.192 58.4921 138.541 55.7769 134.496 55.1012Z" fill="#8D9B33"/>
<path d="M135.47 60.5647C128.954 59.5808 118.185 59.3944 109.677 59.9973C63.775 63.7524 55.3167 63.2431 38.4571 56.4418C26.8025 51.6424 18.7352 45.9128 11.1679 36.7073C6.65617 31.4506 5.39304 30.364 6.20399 32.8222C6.85594 34.6484 10.702 39.7725 14.6345 44.3657C21.7792 52.5476 22.0246 52.6486 36.7985 58.591C50.0481 64.0473 52.7811 64.7479 64.1815 65.4776C71.2563 65.842 85.7533 65.4395 96.5018 64.343C120.625 62.0985 131.639 62.3859 145.305 65.8892C159.758 69.5756 170.436 75.9553 180.214 87.0624C188.183 96.0087 189.092 95.25 182.329 85.526C173.669 73.1799 156.174 63.851 135.47 60.5647Z" fill="#8D9B33"/>
<path d="M142.488 67.7129C130.913 65.0671 116.141 64.7826 95.9668 66.9414C71.5753 69.4853 55.6816 68.4558 39.7793 63.461L27.7123 59.6218L41.9183 65.1911C59.5395 71.8844 68.4321 72.718 98.2306 69.7133C120.681 67.6429 138.341 68.2685 151.877 71.7226C159.162 73.5917 159.634 73.5033 154.852 71.5332C151.787 70.2703 146.182 68.5275 142.488 67.7129Z" fill="#8D9B33"/>
</svg>
