<svg width="117" height="85" viewBox="0 0 117 85" fill="none" xmlns="http://www.w3.org/2000/svg">
<path d="M102.237 53.6863C91.8194 50.9882 78.7058 49.9422 60.9467 50.4887C39.4714 51.0981 25.3193 49.4118 10.9253 44.6508L0 41L12.9239 46.1116C28.9422 52.2855 36.8756 53.4287 63.1175 52.7642C82.8992 52.4135 98.5938 53.8852 110.799 57.3196C117.368 59.1757 117.782 59.1336 113.425 57.339C110.633 56.1886 105.561 54.5242 102.237 53.6863Z" fill="#8D9B33"/>
<path d="M33.7974 3.31324C32.4019 3.56418 30.7656 4.42538 30.2621 5.17105C30.1011 5.41285 29.8753 5.92309 29.7645 6.29596C29.6001 6.84927 29.6085 7.02085 29.782 7.18614C29.9149 7.28811 30.1272 7.37302 30.2613 7.37116C30.5952 7.34657 30.6983 7.64859 30.5518 8.14176C30.491 8.34624 30.4953 8.58176 30.5531 8.63686C30.6246 8.69576 30.6294 8.87937 30.5866 9.02371C30.5365 9.19211 30.5896 9.36306 30.7333 9.42895C30.8597 9.50306 31.0118 9.74053 31.0643 9.96341C31.1168 10.1863 31.2564 10.6156 31.356 10.9296C31.529 11.4463 31.563 11.4818 32.1156 11.57C32.4417 11.6213 32.8161 11.6601 32.9538 11.6462C33.1499 11.6355 33.2281 11.7222 33.2663 11.9932C33.2943 12.2484 33.3826 12.351 33.5477 12.3447C33.6819 12.3428 33.816 12.341 33.8434 12.3486C33.8708 12.3562 33.9304 12.2555 33.9733 12.1112C34.0269 11.9308 34.0961 11.8979 34.2463 11.9916C34.359 12.0619 34.5844 12.2025 34.7656 12.2919C35.022 12.4281 35.0417 12.5116 34.9124 12.6971C34.8182 12.8142 34.6251 13.1643 34.5048 13.4694C34.2188 14.1322 34.3351 14.7894 34.9656 16.2141C35.321 17.0158 35.3759 17.3305 35.295 18.1022C35.2445 18.622 35.2822 19.2444 35.3585 19.4869C35.4349 19.7294 35.4939 19.9801 35.4761 20.0403C35.4582 20.1004 35.1256 20.3206 34.728 20.5098C34.1987 20.7927 33.9745 20.8477 33.8177 20.7261C33.7122 20.6317 32.7118 20.3022 31.6011 19.9942C29.7088 19.4694 29.5753 19.4193 29.3522 19.071C29.0374 18.6322 28.6981 18.5251 28.1527 18.7123C27.9214 18.7914 27.6287 18.8274 27.4916 18.7894C27.3408 18.7475 27.0242 18.7639 26.7589 18.8075C26.3625 18.8929 26.2791 18.9739 26.2165 19.3341C26.1898 19.5741 25.9854 20.0121 25.7893 20.3223C25.5932 20.6325 25.368 21.0908 25.2929 21.3434C25.2179 21.596 25.0111 21.9422 24.8269 22.1125C24.4758 22.4448 24.5313 22.7075 24.9641 22.7495C25.366 22.7958 25.9363 22.2249 26.3624 21.3405C26.5805 20.9063 26.7909 20.548 26.8457 20.5632C26.8869 20.5746 27.0365 20.7203 27.179 20.89C27.4301 21.194 27.3509 21.81 26.9582 22.4822C26.783 22.7722 26.8158 22.9114 27.2279 23.5726C27.5451 24.1032 27.7866 24.3394 27.9959 24.3844C28.1676 24.406 28.5122 24.6448 28.7603 24.9089C29.158 25.3186 30.2664 26.1338 30.3463 26.0648C30.5167 25.8908 30.9071 25.4262 30.9321 25.342C30.95 25.2818 30.8009 25.0842 30.5964 24.9234C29.9799 24.4009 30.3364 24.4997 31.09 25.0603L31.7924 25.5936L31.532 26.1203C31.3312 26.5463 30.6094 27.4267 30.315 27.6185C30.2941 27.6388 29.9692 27.4835 29.5864 27.2732C27.1366 25.8777 24.2445 25.271 21.5619 25.6076C20.3291 25.7605 18.2135 26.4367 17.3862 26.9233C14.2979 28.7749 12.6531 31.3132 12.4695 34.4782C12.283 37.9027 14.0721 41.1721 17.3419 43.3548C18.591 44.1959 19.7822 44.6825 21.4902 45.0781C23.2943 45.5003 24.3185 45.55 26.1128 45.3055C28.5754 44.9599 30.7536 43.9235 32.3569 42.3241C33.056 41.6196 33.0733 41.6114 33.5252 41.7888C33.871 41.9237 33.9867 42.0339 33.9569 42.234C33.9307 42.422 34.1519 42.6266 34.8209 43.0725L35.7051 43.6432L36.8932 43.491L38.0849 43.3267L38.4439 43.8169C39.1415 44.7655 40.0025 45.2647 41.2795 45.4626C42.1171 45.5907 43.2962 45.3188 43.8756 44.8676C44.3161 44.534 44.5366 44.491 44.458 44.7557C44.3901 44.9842 44.726 46.3012 45.0773 47.1668C45.9768 49.4343 47.6481 51.2518 49.9889 52.565C51.291 53.2777 53.5678 53.857 55.1494 53.879C58.8217 53.9079 61.947 52.4312 64.0586 49.6707C65.2244 48.1452 66.0179 45.475 65.8672 43.5844C65.5582 39.5798 62.9857 36.2494 58.987 34.6718C57.5252 34.0971 55.7677 33.818 54.1915 33.9277C53.6478 33.9592 53.1112 33.9666 52.9878 33.9324C52.741 33.8639 52.5728 33.5309 52.395 32.8306C52.3294 32.552 52.098 32.0321 51.8785 31.6718C51.5273 31.1057 51.5082 30.9702 51.6637 30.5967C52.0689 29.7326 53.6667 27.4026 53.985 27.2304C54.1614 27.1362 54.3385 26.99 54.3599 26.9178C54.4028 26.7734 55.1956 26.6027 55.4699 26.6788C55.5659 26.7054 56.0481 26.6308 56.5411 26.5202C57.0377 26.3975 57.7364 26.3439 58.0798 26.3871C58.6396 26.4512 58.7361 26.4259 58.8112 26.1733C58.8863 25.9207 58.8457 25.8574 58.4856 25.7705C56.3489 25.2691 52.2121 24.3562 51.632 24.2604C51.1378 24.1754 50.8945 24.0949 50.9195 24.0107C50.941 23.9386 51.5132 23.5114 52.1921 23.0747C53.8134 22.0141 54.4231 21.3109 54.8259 20.0555C55.1077 19.1572 55.116 19.0293 54.8601 18.2422C54.6047 17.4033 53.0453 14.8095 52.7573 14.7297C52.675 14.7068 52.2827 14.4288 51.8701 14.1191C50.4248 12.9891 49.3075 12.3538 47.4039 11.6175C46.3802 11.2165 45.2784 10.7286 44.9642 10.5373C44.5886 10.303 44.1706 10.161 43.7724 10.1027C43.1852 10.0309 43.175 10.0151 43.3532 9.76508C43.5141 9.52327 43.4832 9.52769 43.0093 9.77384C42.66 9.95038 42.3428 10.0187 42.1097 9.95401C41.904 9.89697 41.5946 9.88928 41.4086 9.91582C41.2191 9.95438 40.3367 9.82687 39.4621 9.62337C38.5876 9.41988 37.7571 9.26769 37.6194 9.28157C37.4232 9.29228 37.3726 9.21312 37.3898 8.90543C37.4368 8.39767 37.9327 8.02745 38.4198 8.13649C38.6702 8.19291 38.7047 8.17646 38.5372 8.09094C38.3697 8.00542 38.3536 7.90981 38.4614 7.79651C38.9317 7.26293 39.0311 6.67858 38.7407 6.20745C38.6357 6.06117 38.5797 5.85032 38.5945 5.7503C38.5957 5.64646 38.539 5.48753 38.4609 5.40077C38.3488 5.27854 38.3768 5.23423 38.5974 5.19124C39.4832 5.00727 38.3725 4.39977 36.6973 4.14349C35.8012 4.01217 35.4381 3.88544 34.5671 3.37045C34.427 3.29253 34.0937 3.26521 33.7974 3.31324ZM46.1086 18.2238C46.3519 18.6038 46.1135 19.0063 45.2361 19.6614C44.3587 20.3164 44.025 20.6405 43.0743 21.6918C42.3394 22.5165 42.1017 22.8672 41.2382 24.4245C40.9819 24.8872 40.6351 25.455 40.4539 25.6651C40.0874 26.1494 40.1011 26.1532 37.3931 25.0767L35.6027 24.3588L35.794 23.8651C35.971 23.4194 36.1409 23.2973 37.6412 22.5937C38.5574 22.1577 39.4176 21.8104 39.5791 21.8161C39.7306 21.806 39.8581 21.7763 39.8724 21.7282C39.8867 21.6801 40.2215 20.6533 40.5927 19.4542L41.2778 17.2486L41.8799 17.2203C42.2102 17.2078 42.64 17.2098 42.8427 17.2269C43.0418 17.2561 43.3411 17.248 43.5062 17.2417C44.2877 17.159 45.7943 17.733 46.1086 18.2238ZM51.7258 25.3931C52.0841 25.6357 52.4216 25.8985 52.4586 25.9739C52.5129 26.041 52.2244 26.612 51.815 27.2406C51.4056 27.8691 50.8734 28.711 50.6386 29.1016L50.2042 29.8144L48.8442 29.3461C47.7103 28.9665 47.4026 28.8031 47.0765 28.4522C46.8624 28.2236 46.5357 27.9247 46.3413 27.7796C46.014 27.5326 46.0175 27.5206 46.3495 27.3523C46.8616 27.0776 48.5162 25.8049 49.1212 25.2176C49.427 24.9378 49.7941 24.7011 49.9247 24.7113C50.5089 24.7431 51.1117 24.9624 51.7258 25.3931ZM39.1772 26.9646C39.4342 27.0489 39.4574 27.1204 39.343 27.5053C39.268 27.7579 39.2639 28.1213 39.3235 28.3201C39.4596 28.7615 39.456 28.7735 39.52 29.8068C39.5833 30.5925 39.1439 33.2699 38.9502 33.3724C38.9156 33.3888 38.6205 33.333 38.2914 33.2417C37.7292 33.0858 37.6851 33.0345 36.0404 30.3781C35.1184 28.8855 34.3497 27.5266 34.3276 27.3512C34.2303 26.5301 34.8703 25.5749 35.4677 25.6624C35.6531 25.6878 36.489 25.9717 37.3278 26.2954C38.1702 26.6072 38.9989 26.9151 39.1772 26.9646ZM48.7039 30.8174C48.8392 31.0112 48.9013 31.3018 48.8548 31.4582L48.7655 31.7589L48.5907 31.398C48.3659 30.906 48.2477 30.4045 48.3711 30.4387C48.4123 30.4501 48.5685 30.6236 48.7039 30.8174ZM51.8363 32.3632C52.06 32.959 52.1735 34.1753 51.987 34.2537C51.8487 34.3195 51.1752 32.1408 51.2043 31.6931C51.2257 31.3215 51.243 31.3133 51.4159 31.5305C51.5244 31.6647 51.7093 32.0415 51.8363 32.3632ZM44.7975 32.0255C45.1738 32.5075 45.7218 33.3104 46.0254 33.8373L46.589 34.7878L45.8976 35.7157C45.5204 36.236 45.0316 36.8817 44.8153 37.1602L44.4243 37.6767L44.2079 37.3563C44.0421 37.115 43.8781 37.0175 43.5312 36.9863C42.9404 36.9266 42.7132 36.6423 42.8633 36.1371C43.0349 35.5597 43.7579 35.1744 44.4203 35.293L44.9419 35.3856L44.4244 35.229C43.681 34.9838 42.9442 35.3654 42.7262 36.0991C42.5403 36.7246 42.7228 37.0095 43.3821 37.0882C43.7392 37.1352 43.9205 37.2245 44.0249 37.4227C44.2306 37.7792 44.1883 37.8716 43.8968 37.8038C43.6601 37.7512 43.6565 37.7632 43.8753 37.876C44.1555 38.0318 44.0876 38.2603 43.5733 38.7426C43.0935 39.2085 42.5689 39.3755 42.089 39.2424C41.3896 39.0484 41.3968 39.0244 42.2548 36.7365C43.1092 34.4607 43.8591 31.6872 43.7803 31.0534C43.7397 30.6906 43.7433 30.6786 43.9263 30.9116C44.0313 31.0579 44.4177 31.5556 44.7975 32.0255ZM57.0436 37.4658C56.1738 40.193 55.4534 42.1675 55.3479 42.0732C55.2424 41.9788 55.2375 41.4957 55.3145 38.9392C55.3506 37.8686 55.3641 36.6745 55.3652 36.2712C55.3627 35.88 55.3739 35.4925 55.3954 35.4203C55.4383 35.276 56.7164 35.3701 57.2852 35.5538L57.6209 35.673L57.0436 37.4658ZM59.4524 36.4022C59.7839 36.5853 60.0361 36.7854 60.0182 36.8456C59.9968 36.9178 59.1791 38.0711 58.2011 39.4143C57.2231 40.7575 56.2904 42.0481 56.1158 42.2861C55.9549 42.5279 55.757 42.6944 55.6956 42.6513C55.5692 42.5772 56.3055 40.0994 57.3178 37.2424L57.879 35.6534L58.3649 35.8663C58.6248 35.9905 59.1036 36.2274 59.4524 36.4022ZM33.5025 30.0779C33.8752 30.5718 34.3744 31.4393 34.6052 32.0111C34.8497 32.5867 35.2463 33.3998 35.5028 33.8354C37.4773 37.1302 38.3772 38.7468 38.3379 38.8791C38.2634 39.0798 37.727 39.3867 37.3931 39.4113C37.259 39.4131 37.0271 39.5441 36.8811 39.6859C36.7488 39.8315 36.5586 39.922 36.4626 39.8953C36.3529 39.8649 36.1318 39.9598 35.9446 40.0902C35.7676 40.2364 35.3879 40.3654 35.116 40.3812C34.8406 40.409 34.592 40.4963 34.5634 40.5925C34.5206 40.7368 33.9214 40.805 33.8266 40.6746C33.8063 40.6429 34.0012 40.1371 34.2658 39.5465C34.7705 38.3975 35.0617 36.968 35.0131 35.7828C34.9561 33.827 33.9725 31.393 32.5981 29.775C32.1401 29.2183 32.0865 29.0993 32.2533 28.9372C32.4965 28.7182 32.4625 28.6828 33.5025 30.0779ZM27.2955 27.6404C27.3426 27.7316 26.7337 29.2813 25.7702 31.4748C25.3393 32.475 24.9991 33.0707 24.707 33.3542C24.1855 33.8606 23.9268 33.932 24.0376 33.5591C24.084 33.4028 24.1857 32.0118 24.2754 30.4613C24.3651 28.9108 24.4572 27.4522 24.4804 27.2242L24.5125 26.8165L25.8837 27.1968C26.6379 27.4059 27.2752 27.6087 27.2955 27.6404ZM29.1497 28.4931C29.3554 28.5502 29.1319 28.8527 28.0817 29.8895C27.4904 30.4807 26.7251 31.2579 26.3669 31.6142C26.026 31.9624 25.7238 32.2301 25.7 32.2105C25.6833 32.1668 27.4833 27.7576 27.5459 27.6968C27.5596 27.7006 27.8982 27.8596 28.3084 28.0776C28.7085 28.2796 29.0847 28.4621 29.1497 28.4931ZM55.1978 36.7846C55.1818 37.5874 55.1559 38.9733 55.1358 39.8401C55.1258 40.7227 55.0831 41.4659 55.0348 41.4786C55.0002 41.495 54.7295 41.1075 54.4289 40.6205C54.0508 39.9949 53.7436 39.1806 53.4513 37.9668C52.7771 35.241 52.7396 35.517 53.6695 35.3844C54.5476 35.2764 54.8368 35.2524 55.0735 35.305C55.1593 35.3158 55.2137 35.9818 55.1978 36.7846ZM24.3522 27.0064C24.3379 27.0545 24.2267 28.6772 24.1019 30.5955C23.9873 32.5297 23.8487 34.1447 23.7998 34.2093C23.723 34.3182 23.5374 33.6939 22.8472 31.1719C22.7153 30.6666 22.5536 30.062 22.4737 29.8315C22.2446 29.104 21.6945 26.9594 21.7088 26.9113C21.7196 26.8752 22.1154 26.8418 22.5935 26.8311C23.8388 26.7859 24.4022 26.838 24.3522 27.0064ZM61.4283 37.7444C61.8099 38.0586 62.3835 38.7254 62.7252 39.2238L63.3341 40.1217L61.209 41.0296C60.0377 41.525 58.4378 42.214 57.6396 42.5525C56.8551 42.8948 56.2197 43.1352 56.2376 43.075C56.2554 43.0149 57.46 42.008 58.921 40.8377C61.8601 38.4891 62.0407 38.3309 61.8338 38.3777C61.7545 38.3947 61.3421 38.6839 60.929 39.0251C57.9792 41.4098 56.1058 42.8692 56.0652 42.8059C56.0348 42.7584 56.9579 41.4 58.1177 39.7948C60.5141 36.4754 60.1851 36.6836 61.4283 37.7444ZM50.1455 34.407C50.3435 34.8395 50.2172 35.0649 49.9631 34.721C49.7634 34.4443 49.7538 34.0771 49.932 34.1265C49.9869 34.1417 50.0817 34.2722 50.1455 34.407ZM21.8659 28.2308C22.0747 28.9266 22.3885 30.0682 22.5663 30.7685C22.7614 31.4606 23.0519 32.5307 23.2237 33.1512C23.3991 33.7597 23.5238 34.289 23.5167 34.313C23.481 34.4333 21.5614 31.7527 19.5559 28.7619L18.8051 27.6423L19.4197 27.4222C19.9997 27.2185 21.4686 26.8707 21.4954 26.9302C21.5056 26.946 21.6744 27.5267 21.8659 28.2308ZM53.1256 37.2646C53.5337 38.888 53.5528 39.0235 53.2952 38.6917C52.9834 38.2927 52.2788 35.8189 52.4218 35.6372C52.6275 35.3948 52.6877 35.5417 53.1256 37.2646ZM31.7774 30.8884C32.4083 31.6623 33.0494 32.7514 33.1812 33.2567C33.2636 33.579 33.412 33.529 29.9962 34.2352C28.4314 34.5564 26.7253 34.9034 26.215 35.0223C25.691 35.1374 25.2088 35.212 25.1402 35.1929C24.9619 35.1435 25.6277 34.6511 26.5236 34.1835C28.5956 33.1046 31.3841 31.6126 31.7096 31.4164C32.184 31.1183 30.4345 31.9611 28.2934 33.0729L26.5606 33.9594L27.4534 33.1524C29.4096 31.3644 30.948 30.0334 31.044 30.06C31.0988 30.0753 31.4316 30.454 31.7774 30.8884ZM19.9519 29.6269C20.6389 30.6116 21.7081 32.158 22.3104 33.0281C22.9264 33.902 23.3892 34.6422 23.3546 34.6587C23.3165 34.6872 22.8252 34.3426 22.273 33.903C21.7311 33.4793 20.1766 32.2671 18.8369 31.2315C17.4834 30.1922 16.4036 29.2808 16.425 29.2086C16.4965 28.968 18.4224 27.7315 18.6144 27.7847C18.6555 27.7961 19.2548 28.6263 19.9519 29.6269ZM40.9254 34.1675C41.0298 34.3657 40.9815 34.3784 40.6524 34.2871C40.145 34.1464 39.2246 34.3468 39.0494 34.6367C38.9165 34.8342 38.845 34.7753 38.3953 34.0908L37.895 33.3271L38.8489 33.5135C40.5712 33.861 40.8008 33.9377 40.9254 34.1675ZM63.8673 41.3242C64.0677 41.8485 64.19 42.286 64.1727 42.2942C63.8377 42.4226 56.5333 43.3784 56.4963 43.3031C56.4522 43.2518 56.5148 43.191 56.6114 43.1657C56.7562 43.1278 59.4136 41.9769 62.282 40.7153C62.797 40.4805 63.2942 40.306 63.3627 40.325C63.445 40.3478 63.6669 40.7999 63.8673 41.3242ZM47.4299 36.7526C47.3226 36.814 47.0026 37.1418 46.6962 37.4735C46.0692 38.1849 46.0394 38.0855 46.6336 37.2348C47.0949 36.5815 47.3518 36.3664 47.5253 36.5317C47.5831 36.5868 47.5545 36.683 47.4299 36.7526ZM33.5559 34.4933C33.7188 35.2936 33.7762 36.299 33.6618 36.3845C33.6064 36.4212 33.297 36.4135 32.9673 36.3741C32.1398 36.2618 27.2626 35.7425 26.1186 35.6465C25.6238 35.6135 25.2017 35.5355 25.1885 35.4798C25.1486 35.3645 33.2386 33.6632 33.3405 33.7696C33.3882 33.8088 33.4843 34.1349 33.5559 34.4933ZM64.2592 42.5526C64.2521 42.5766 64.2885 43.0034 64.3411 43.5257C64.3835 44.0322 64.3544 44.4798 64.299 44.5165C64.1988 44.5539 59.4922 44.1599 57.4932 43.9441C55.8448 43.7473 56.4385 43.5474 60.224 42.9958C63.4413 42.508 64.2813 42.4285 64.2592 42.5526ZM18.5346 31.1998C19.7551 32.1371 21.2994 33.3336 21.9881 33.8631C23.1776 34.8049 23.5133 35.2235 22.7985 34.882C22.5898 34.7851 21.4809 34.3213 20.3135 33.8543C15.6816 32.01 14.6103 31.5696 14.5727 31.5462C14.4266 31.3885 15.9965 29.4022 16.2159 29.463C16.2707 29.4783 17.3278 30.2662 18.5346 31.1998ZM52.2946 40.2109C52.8219 41.3336 52.7318 41.3867 51.9239 40.4596C51.479 39.9587 51.4289 39.8276 51.609 39.7213C51.9171 39.5333 52.0024 39.596 52.2946 40.2109ZM45.8273 38.5996C45.6908 38.8091 45.338 39.5966 45.0681 40.355C44.7947 41.1254 44.5092 41.7363 44.4544 41.7211C44.3173 41.6831 44.3858 41.4026 44.742 40.3036C44.9488 39.6579 45.9714 38.0146 46.0591 38.1691C46.0794 38.2008 45.9775 38.3939 45.8273 38.5996ZM52.1356 40.8959C52.934 41.7553 53.7379 43.0458 53.5376 43.1205C53.472 43.1413 51.2148 42.3461 50.3694 41.9945C50.0272 41.8475 49.8191 41.6986 49.8477 41.6024C49.8763 41.5062 49.8196 41.3472 49.7487 41.2364C49.6062 41.0667 49.6276 40.9945 49.934 40.6629C50.7106 39.7976 50.9257 39.6229 51.0516 39.749C51.1332 39.8237 51.6192 40.3361 52.1356 40.8959ZM64.3205 45.0433C64.3152 45.2111 64.1884 45.7878 64.0275 46.3291C63.6808 47.4958 63.8805 47.4731 61.7413 46.5804C56.419 44.3622 56.5115 44.4009 56.5829 44.1603C56.6187 44.04 57.4986 44.0758 59.9548 44.3012C61.7892 44.4715 63.3797 44.6131 63.4966 44.6195C64.057 44.6317 64.3133 44.7679 64.3205 45.0433ZM33.5607 37.7235C33.2058 39.6171 31.6002 41.7236 29.6063 42.8893C28.4607 43.548 26.2968 44.2368 26.1483 43.9873C25.976 43.7182 24.2779 36.6463 24.3649 36.5533C24.4138 36.4887 25.4084 37.9363 26.5981 39.7766C27.7914 41.6047 28.8129 43.1119 28.8678 43.1271C28.9226 43.1423 28.0007 41.6498 26.811 39.8095C25.6248 37.9573 24.679 36.4451 24.7172 36.4166C24.7863 36.3837 25.6181 37.031 28.9308 39.6684C30.6826 41.0655 31.4637 41.6337 31.3456 41.4317C31.3152 41.3842 29.8669 40.2144 28.1116 38.8292C26.3562 37.4441 24.9186 36.2382 24.9127 36.1584C24.9037 36.0387 25.0855 36.0761 25.5476 36.2694C25.9035 36.4202 26.681 36.7009 27.2771 36.8922C28.1679 37.1913 28.079 37.1407 26.7781 36.6237C24.3748 35.6707 24.4857 35.5973 27.9238 35.9649C29.3045 36.1135 31.1627 36.3033 32.0283 36.3871C33.0967 36.4881 33.6285 36.5966 33.672 36.6998C33.709 36.7751 33.659 37.243 33.5607 37.7235ZM17.4875 32.8753C18.9458 33.462 20.7875 34.2071 21.5715 34.5157C22.3656 34.8401 23.0227 35.1265 23.0531 35.174C23.1276 35.2727 22.0557 35.1838 19.841 34.8951C18.8966 34.7764 17.1797 34.5606 16.0088 34.4052C14.8344 34.2617 13.8286 34.1 13.7845 34.0487C13.6688 33.9385 14.2526 31.874 14.4255 31.7918C14.5847 31.7057 14.5298 31.6905 17.4875 32.8753ZM51.597 42.6083C52.1312 42.8086 52.5384 42.9866 52.4901 42.9992C52.4037 43.0404 49.4926 42.5976 49.0401 42.4721C48.7522 42.3922 48.7557 42.3802 49.2123 42.1423C49.5998 41.9373 49.7685 41.9189 50.1554 42.0653C50.4088 42.1616 51.0628 42.4081 51.597 42.6083ZM57.4785 44.9425C58.4056 45.3689 61.9584 46.8489 62.8557 47.1759C63.496 47.4185 63.5437 47.4578 63.4579 47.7465C63.4078 47.9149 63.1623 48.3415 62.9245 48.6922C62.4072 49.4341 62.5819 49.4955 60.5982 47.9299C59.8278 47.3256 58.6145 46.3642 57.8745 45.8075C56.0506 44.4033 55.9767 44.2526 57.4785 44.9425ZM20.8272 35.8716C19.5908 36.0365 17.5485 36.3164 16.2674 36.4819C13.9705 36.7693 13.9568 36.7655 13.8709 36.4552C13.7814 36.157 13.6517 34.5456 13.7017 34.3773C13.7267 34.2931 15.2142 34.4321 17.7413 34.7685C18.4865 34.8579 19.7742 35.0198 20.6053 35.1201C23.3321 35.4336 23.3554 35.5052 20.8272 35.8716ZM59.6997 47.4073C60.194 47.7917 61.0019 48.4194 61.4723 48.7842L62.3518 49.4708L61.6258 50.1157C61.2229 50.4727 60.7544 50.8505 60.5845 50.9727L60.2626 51.1568L59.2775 49.7769C56.3937 45.6962 55.9578 45.0155 56.1413 44.8972C56.3041 44.7991 56.5909 44.9828 57.5657 45.7479C58.2407 46.2736 59.2054 47.0228 59.6997 47.4073ZM21.259 36.6163C20.3911 37.0396 18.669 37.89 17.4345 38.4981L15.1902 39.6073L14.7483 38.8468C14.502 38.427 14.2336 37.8317 14.1376 37.5056L13.9723 36.913L16.1798 36.6268C17.3953 36.4822 19.3274 36.2238 20.4707 36.0722C21.6141 35.9206 22.6127 35.807 22.6949 35.8298C22.7671 35.8368 22.1233 36.205 21.259 36.6163ZM22.2242 37.0142C21.6091 37.5857 20.5702 38.5345 19.9271 39.1503C19.2738 39.7503 18.4156 40.5408 18.0401 40.9054C17.6508 41.2662 17.2724 41.5909 17.2032 41.6238C16.9749 41.7427 15.2922 40.0132 15.3709 39.7485C15.4137 39.6042 23.055 35.9166 23.2059 35.9584C23.2744 35.9775 22.8357 36.4547 22.2242 37.0142ZM53.858 44.5894C53.8259 44.6977 50.5648 46.931 48.6908 48.1429C48.2336 48.4327 47.8867 48.7011 47.9171 48.7485C47.9475 48.796 48.4112 48.5341 48.9519 48.1632C52.9366 45.4926 53.9827 44.8193 54.1204 44.8054C54.2235 44.8079 54.2194 44.8719 54.1216 45.001C54.0137 45.1143 53.5358 45.7239 53.0298 46.3777C51.1488 48.8116 50.1023 50.1357 49.8722 50.4104L49.6386 50.6972L48.9606 50.1316C48.5927 49.8213 48.0489 49.2538 47.7371 48.8549C47.2016 48.1595 46.2343 46.4201 46.369 46.3663C47.1493 46.0879 52.5912 44.4073 52.8702 44.3675C53.3387 44.2892 53.9081 44.421 53.858 44.5894ZM22.6715 37.9064C19.9542 43.1548 19.8141 43.3764 19.5613 43.2282C19.445 43.1699 19.175 43.0299 18.9526 42.9292C18.7475 42.8202 18.2693 42.5313 17.9283 42.2805L17.273 41.8384L18.7363 40.4605C19.5528 39.7105 20.4564 38.8675 20.7586 38.5997C21.0644 38.32 21.6622 37.7567 22.1104 37.3472C23.0212 36.4801 23.4378 36.1269 23.4885 36.2061C23.5088 36.2377 23.1357 36.9936 22.6715 37.9064ZM57.3657 47.3199C58.1815 48.4705 59.1392 49.8427 59.4773 50.3531L60.11 51.2707L59.1527 51.6953C58.6276 51.9142 57.9921 52.1546 57.7405 52.202L57.2857 52.2842L56.4313 48.7663C55.9647 46.8402 55.6013 45.2161 55.6192 45.1559C55.6764 44.9635 55.9036 45.2478 57.3657 47.3199ZM23.2151 40.3226C22.9371 42.1073 22.6888 43.6919 22.6733 43.8439C22.64 44.0559 22.5536 44.0971 22.2066 44.0659C21.6742 44.0094 20.6011 43.7248 20.2457 43.5221L19.9894 43.3859L20.7629 41.8819C21.5078 40.474 23.1382 37.3849 23.5386 36.6366L23.7281 36.2986L23.7306 36.6899C23.7283 36.8975 23.4931 38.5379 23.2151 40.3226ZM24.9516 40.023C25.3985 41.8655 25.8132 43.5168 25.8764 43.7036C25.9295 43.8746 25.9307 44.0702 25.8717 44.1189C25.7329 44.2367 24.1847 44.3021 23.4395 44.2126C22.7318 44.1465 22.7563 44.4137 23.2391 41.2406C23.6696 38.4436 23.8589 37.2072 23.8952 36.7355C23.9475 36.06 24.1103 36.5608 24.9516 40.023ZM51.9032 44.4249C51.4264 44.6311 46.6915 46.1302 46.4643 46.1453C46.3439 46.151 46.2031 45.8255 46.0957 45.288C45.7932 43.7589 45.7407 43.8355 47.0612 43.8371C48.148 43.8261 49.4434 43.9119 51.1091 44.1005C52.2424 44.2325 52.28 44.2559 51.9032 44.4249ZM53.2913 48.4944C52.655 50.3359 52.0943 51.873 52.0461 51.8856C51.9423 51.935 50.273 51.1596 50.0243 50.9474C49.8133 50.7586 49.7888 50.7909 53.6061 45.8866C54.3493 44.934 54.3458 44.946 54.4066 45.041C54.437 45.0885 53.9449 46.6446 53.2913 48.4944ZM56.2369 48.6212C56.6671 50.4201 57.0311 51.9922 57.0365 52.1239C57.0508 52.3753 56.6681 52.4644 55.4126 52.4938C54.8415 52.5177 54.7903 52.4905 54.7753 52.291C54.7651 51.9757 54.8708 47.1748 54.9183 46.0162C54.9563 45.3887 55.0761 45.1355 55.3152 45.2799C55.3766 45.323 55.7894 46.8306 56.2369 48.6212ZM54.7514 46.1782C54.7491 46.6853 54.7208 47.9794 54.6846 49.05C54.6521 50.1086 54.6386 51.3027 54.6411 51.6939C54.6435 52.0852 54.6192 52.417 54.6019 52.4252C54.4463 52.4992 52.4592 52.1434 52.402 52.0364C52.3614 51.9731 52.7296 50.7342 53.217 49.294C53.7043 47.8538 54.2131 46.3414 54.3382 45.9204C54.4735 45.5152 54.6147 45.1898 54.6832 45.2089C54.7381 45.2241 54.771 45.6628 54.7514 46.1782Z" fill="#F19C20"/>
<path d="M54.6395 2.26603C53.2349 2.68833 51.6427 3.78707 51.199 4.63689C51.0576 4.9122 50.8757 5.48049 50.7982 5.88977C50.6833 6.49709 50.7084 6.67882 50.902 6.83549C51.048 6.92927 51.2735 6.99605 51.4107 6.97916C51.7501 6.91586 51.885 7.22592 51.7825 7.76723C51.7401 7.99167 51.7671 8.24193 51.8317 8.29416C51.9106 8.34891 51.9333 8.54384 51.9033 8.70227C51.8683 8.88711 51.9392 9.0632 52.0926 9.11737C52.2292 9.18221 52.4078 9.41811 52.4831 9.64954C52.5584 9.88097 52.7428 10.3225 52.8751 10.6457C53.1021 11.1765 53.1403 11.2105 53.7147 11.2429C54.0536 11.2614 54.4406 11.261 54.5803 11.2309C54.7801 11.1977 54.8684 11.2814 54.9337 11.5656C54.9871 11.8341 55.0874 11.9335 55.2558 11.9085C55.393 11.8916 55.5302 11.8747 55.559 11.8797C55.5878 11.8848 55.6391 11.771 55.6691 11.6126C55.7065 11.4145 55.7742 11.3718 55.937 11.4549C56.0592 11.5172 56.3036 11.6419 56.4978 11.7168C56.7734 11.8333 56.8016 11.9201 56.6871 12.1319C56.602 12.2671 56.4381 12.6612 56.3443 12.9994C56.1155 13.7368 56.2981 14.4235 57.0812 15.8702C57.5225 16.6841 57.6091 17.013 57.6008 17.8435C57.5992 18.4025 57.6979 19.0609 57.7995 19.3106C57.9011 19.5602 57.9858 19.8206 57.9733 19.8866C57.9608 19.9526 57.6415 20.2241 57.2527 20.4697C56.738 20.8296 56.5138 20.9131 56.3415 20.8011C56.2243 20.7124 55.1682 20.4728 54.0012 20.2684C52.0131 19.9201 51.8715 19.8817 51.6095 19.5357C51.2448 19.1035 50.8871 19.0272 50.3467 19.2872C50.1175 19.3971 49.8213 19.4679 49.6772 19.4427C49.5187 19.4149 49.1962 19.4676 48.9288 19.5435C48.5311 19.6784 48.4535 19.7739 48.4243 20.1644C48.42 20.4228 48.2531 20.9119 48.0823 21.2639C47.9114 21.6159 47.7251 22.1288 47.6726 22.4061C47.6201 22.6833 47.4418 23.075 47.2697 23.2767C46.9423 23.6695 47.0245 23.943 47.4717 23.9395C47.8876 23.9442 48.4165 23.273 48.7674 22.2842C48.9488 21.7976 49.1296 21.3928 49.1872 21.4029C49.2304 21.4105 49.3977 21.5489 49.56 21.7137C49.8464 22.0094 49.8248 22.674 49.4876 23.4333C49.3362 23.7615 49.3833 23.9061 49.869 24.5641C50.2451 25.0937 50.5152 25.3184 50.7338 25.343C50.9117 25.3469 51.2876 25.5628 51.567 25.8164C52.0138 26.2083 53.2274 26.9529 53.3025 26.8706C53.4603 26.6663 53.8151 26.1283 53.8326 26.0359C53.8451 25.9699 53.6734 25.7761 53.4485 25.6276C52.7668 25.1399 53.1413 25.2055 53.9671 25.7185L54.7378 26.2081L54.522 26.7978C54.3575 27.2736 53.7035 28.2912 53.4205 28.5281C53.4011 28.552 53.0534 28.4229 52.6412 28.2415C49.9981 27.0283 46.9783 26.7039 44.2641 27.3606C43.0166 27.6604 40.9158 28.6154 40.1156 29.2255C37.1324 31.54 35.6933 34.4252 35.8109 37.8149C35.9506 41.4813 38.0981 44.7629 41.6567 46.723C43.0169 47.4796 44.2836 47.8652 46.0706 48.0964C47.9585 48.3452 49.012 48.2843 50.8256 47.8245C53.3137 47.1828 55.4438 45.8373 56.931 43.9563C57.5788 43.1286 57.5958 43.1179 58.0756 43.2565C58.4427 43.3618 58.5718 43.4662 58.5606 43.6825C58.5519 43.8856 58.7982 44.0788 59.5262 44.4791L60.4866 44.9884L61.6884 44.6942L62.8927 44.3868L63.3076 44.8687C64.1135 45.801 65.0433 46.2367 66.3699 46.3054C67.2399 46.3487 68.4209 45.9281 68.9706 45.3833C69.3894 44.9793 69.6111 44.909 69.5561 45.1995C69.5086 45.4503 69.9797 46.815 70.423 47.6974C71.5629 50.0114 73.4497 51.7605 75.9731 52.8982C77.3752 53.5121 79.7624 53.8757 81.3839 53.7233C85.1467 53.3458 88.2041 51.4261 90.0996 48.2527C91.1459 46.499 91.7006 43.5681 91.3639 41.5722C90.6608 37.3433 87.7053 34.0839 83.4587 32.849C81.9064 32.3997 80.08 32.298 78.4767 32.59C77.9231 32.684 77.3744 32.7516 77.2448 32.7289C76.9855 32.6834 76.7811 32.3476 76.5314 31.6218C76.4373 31.3325 76.1502 30.8048 75.8907 30.4456C75.4764 29.882 75.4438 29.7399 75.5669 29.325C75.8984 28.36 77.3094 25.7019 77.6187 25.4832C77.7902 25.3632 77.9574 25.1879 77.9724 25.1087C78.0024 24.9503 78.7977 24.6804 79.0858 24.7309C79.1867 24.7485 79.6733 24.6155 80.1673 24.4429C80.6639 24.2571 81.3741 24.1224 81.7299 24.1301C82.3092 24.1361 82.4057 24.0985 82.4582 23.8212C82.5106 23.544 82.463 23.481 82.0859 23.4286C79.8497 23.1324 75.5259 22.6205 74.9227 22.583C74.4084 22.5475 74.1516 22.4888 74.1691 22.3964C74.1841 22.3172 74.7287 21.7988 75.3817 21.2585C76.9394 19.9491 77.4958 19.1327 77.7869 17.7514C77.9887 16.7638 77.9849 16.6267 77.6469 15.8173C77.3044 14.9525 75.4573 12.3647 75.1547 12.3117C75.0683 12.2965 74.6397 12.0441 74.1874 11.7603C72.5985 10.7181 71.3931 10.1659 69.3729 9.59378C68.286 9.28063 67.1108 8.88379 66.7706 8.71508C66.3634 8.50734 65.9218 8.4027 65.5084 8.38484C64.9002 8.37378 64.8883 8.35806 65.0466 8.07207C65.188 7.79675 65.1567 7.80491 64.6953 8.11964C64.3546 8.34641 64.0365 8.45437 63.7916 8.41146C63.5755 8.3736 63.258 8.39982 63.0701 8.44875C62.8797 8.51088 61.964 8.47323 61.0488 8.35384C60.1337 8.23444 59.2687 8.16475 59.129 8.19485C58.9293 8.22805 58.8697 8.14942 58.8576 7.81994C58.8567 7.27417 59.3288 6.8249 59.838 6.88682C60.0998 6.91905 60.1336 6.89769 59.9538 6.82528C59.774 6.75286 59.7483 6.65287 59.8478 6.52026C60.2778 5.89993 60.3232 5.2668 59.9803 4.79753C59.8588 4.65347 59.781 4.43524 59.7866 4.3271C59.7777 4.21643 59.7044 4.05354 59.616 3.96986C59.4894 3.85221 59.5138 3.80192 59.7355 3.73163C60.6248 3.43728 59.4288 2.91406 57.6888 2.82748C56.7587 2.78731 56.3747 2.69276 55.4331 2.24136C55.2821 2.17399 54.9382 2.18196 54.6395 2.26603ZM68.6845 16.7707C68.9703 17.1481 68.7651 17.6032 67.93 18.3981C67.0949 19.193 66.7844 19.5751 65.9125 20.8C65.2397 21.7597 65.0301 22.1595 64.2963 23.9133C64.0786 24.4344 63.7783 25.0774 63.6131 25.3213C63.2846 25.8776 63.299 25.8801 60.4224 25.0352L58.5199 24.47L58.6681 23.9231C58.8063 23.4289 58.9684 23.28 60.4367 22.3642C61.3327 21.7982 62.1799 21.3328 62.3458 21.321C62.4999 21.2934 62.6276 21.2476 62.6376 21.1948C62.6476 21.142 62.8913 20.0116 63.1556 18.6939L63.6441 16.2696L64.2579 16.1726C64.5948 16.1225 65.0351 16.0768 65.2443 16.0726C65.451 16.0815 65.7566 16.0395 65.9251 16.0145C66.7173 15.8396 68.3153 16.2832 68.6845 16.7707ZM75.1281 23.7784C75.5184 23.9968 75.8894 24.2391 75.9345 24.3152C75.9965 24.3807 75.7564 25.0206 75.3978 25.7353C75.0393 26.45 74.5757 27.4054 74.373 27.8473L73.997 28.6544L72.5594 28.3071C71.3617 28.0291 71.0309 27.8893 70.6631 27.552C70.4218 27.3324 70.0584 27.0505 69.8454 26.9177C69.4863 26.6912 69.4888 26.678 69.8126 26.4619C70.3103 26.1126 71.8816 24.5737 72.4443 23.8811C72.7304 23.5493 73.0835 23.2565 73.2182 23.2528C73.8194 23.2218 74.4577 23.3882 75.1281 23.7784ZM62.4314 26.8466C62.7026 26.9077 62.7333 26.9813 62.6534 27.4038C62.6009 27.6811 62.6318 28.0684 62.7121 28.2734C62.894 28.7281 62.8915 28.7413 63.0568 29.8342C63.1975 30.6636 63.0061 33.5628 62.8176 33.6934C62.7838 33.7148 62.4763 33.6882 62.1305 33.6276C61.5398 33.5241 61.4897 33.4744 59.5492 30.8293C58.4611 29.3429 57.5428 27.9817 57.5032 27.7974C57.3243 26.934 57.8874 25.846 58.5075 25.8728C58.6998 25.8792 59.583 26.0885 60.4732 26.3399C61.3658 26.5781 62.2441 26.8138 62.4314 26.8466ZM72.5577 29.889C72.715 30.0803 72.8066 30.3828 72.7741 30.5544L72.7116 30.8845L72.4979 30.5197C72.2202 30.0209 72.0508 29.5002 72.1804 29.5229C72.2237 29.5304 72.4004 29.6978 72.5577 29.889ZM75.9143 31.1863C76.2008 31.7958 76.4345 33.078 76.251 33.1822C76.1158 33.2677 75.2158 31.0231 75.2024 30.5433C75.1884 30.1453 75.2053 30.1346 75.4034 30.3466C75.5274 30.4775 75.7531 30.858 75.9143 31.1863ZM68.6747 31.6095C69.1065 32.0807 69.7451 32.8746 70.1068 33.4017L70.7756 34.3509L70.1573 35.4157C69.8213 36.0115 69.3832 36.7532 69.1886 37.0737L68.8382 37.6671L68.5856 37.35C68.3925 37.1116 68.2152 37.026 67.857 37.0314C67.2463 37.0336 66.9862 36.7561 67.0912 36.2016C67.2111 35.5679 67.9142 35.0773 68.6038 35.1299L69.1469 35.1705L68.6019 35.0613C67.817 34.8829 67.0995 35.371 66.9471 36.1764C66.8172 36.8629 67.0315 37.146 67.7142 37.1565C68.0844 37.1668 68.2786 37.2417 68.4046 37.4411C68.6497 37.7978 68.6153 37.9009 68.3103 37.8611C68.0628 37.8314 68.0603 37.8446 68.2953 37.9403C68.5972 38.075 68.5498 38.3259 68.0697 38.8965C67.6234 39.4457 67.1024 39.6818 66.5981 39.5935C65.8634 39.4648 65.8684 39.4384 66.526 36.9074C67.181 34.3896 67.6812 31.3536 67.5393 30.6877C67.4627 30.306 67.4652 30.2928 67.6751 30.5205C67.7967 30.6646 68.2404 31.1515 68.6747 31.6095ZM81.7386 36.0395C81.1113 39.0396 80.5644 41.2217 80.4472 41.133C80.33 41.0442 80.2784 40.5305 80.1104 37.8003C80.044 36.6566 79.9425 35.3839 79.9047 34.9544C79.8644 34.5381 79.8385 34.1244 79.8535 34.0452C79.8835 33.8868 81.2013 33.8448 81.8014 33.9772L82.1566 34.0667L81.7386 36.0395ZM84.1023 34.6394C84.4594 34.7975 84.7369 34.9825 84.7244 35.0485C84.7094 35.1277 83.9836 36.4464 83.1119 37.9851C82.2402 39.5238 81.4098 41.0015 81.254 41.2743C81.1126 41.5496 80.9261 41.7488 80.859 41.7098C80.7224 41.6449 81.2371 38.9252 81.9977 35.7712L82.419 34.0172L82.937 34.1898C83.2152 34.2931 83.7283 34.4921 84.1023 34.6394ZM56.9217 30.7919C57.351 31.2763 57.9458 32.1443 58.2374 32.7274C58.5433 33.3129 59.0279 34.1344 59.3325 34.5697C61.6723 37.8576 62.7499 39.4786 62.7224 39.6239C62.6655 39.8458 62.1458 40.2321 61.8064 40.2954C61.6692 40.3123 61.4445 40.4776 61.3086 40.6447C61.1872 40.8144 61.0013 40.9319 60.9004 40.9142C60.7852 40.894 60.5679 41.0197 60.3888 41.1792C60.2217 41.3546 59.8454 41.5342 59.5685 41.5812C59.2892 41.6413 59.0431 41.7619 59.0231 41.8675C58.9932 42.026 58.3863 42.1652 58.2766 42.0369C58.2528 42.0054 58.4035 41.4453 58.6173 40.7871C59.0232 39.5078 59.1833 37.9536 59.0192 36.6972C58.772 34.6215 57.5299 32.1397 55.9664 30.57C55.4438 30.0283 55.3773 29.9075 55.5325 29.7165C55.7604 29.4563 55.7222 29.4223 56.9217 30.7919ZM50.331 28.8871C50.388 28.9789 49.9142 30.6964 49.1394 33.1387C48.7949 34.2514 48.504 34.9234 48.2323 35.2577C47.7472 35.8547 47.4892 35.9596 47.5667 35.5503C47.5992 35.3787 47.569 33.8866 47.5111 32.226C47.4532 30.5654 47.4067 29.0023 47.4085 28.7571L47.402 28.3194L48.8427 28.5718C49.6351 28.7106 50.3072 28.8557 50.331 28.8871ZM52.3118 29.5888C52.528 29.6266 52.3283 29.9736 51.3531 31.194C50.8048 31.8891 50.0963 32.8016 49.7639 33.2208C49.4485 33.6293 49.1649 33.9479 49.1386 33.9297C49.1173 33.885 50.5346 28.991 50.5928 28.9193C50.6072 28.9219 50.9693 29.0535 51.4104 29.2399C51.8395 29.4105 52.2423 29.5629 52.3118 29.5888ZM79.7829 35.5196C79.8441 36.376 79.9513 37.8543 80.0144 38.7792C80.0895 39.7199 80.1174 40.5159 80.0692 40.5348C80.0354 40.5561 79.7208 40.1737 79.366 39.6887C78.9185 39.0647 78.5254 38.2319 78.1088 36.9723C77.1553 34.1454 77.1436 34.4434 78.083 34.1988C78.9716 33.9862 79.2653 33.9285 79.5127 33.9582C79.6017 33.9602 79.7217 34.6632 79.7829 35.5196ZM47.2561 28.5394C47.2461 28.5922 47.289 30.332 47.3465 32.3881C47.4158 34.46 47.4299 36.1947 47.386 36.2689C47.3178 36.3933 47.0676 35.7493 46.1173 33.1413C45.9336 32.618 45.7096 31.9923 45.6055 31.7558C45.3007 31.0068 44.5305 28.7849 44.5404 28.7321C44.5479 28.6925 44.95 28.6128 45.4385 28.5484C46.7093 28.3618 47.2911 28.3546 47.2561 28.5394ZM86.255 35.8486C86.676 36.1406 87.3278 36.7867 87.7257 37.2793L88.4358 38.1675L86.3476 39.3704C85.1961 40.028 83.6245 40.9394 82.8399 41.3884C82.0698 41.8401 81.4424 42.1666 81.4549 42.1006C81.4674 42.0346 82.6035 40.8287 83.9864 39.4205C86.769 36.5934 86.9386 36.4048 86.7313 36.4777C86.6518 36.5046 86.2574 36.8584 85.8674 37.2675C83.0773 40.1342 81.3001 41.8962 81.2524 41.8333C81.2167 41.7861 82.0308 40.2373 83.0633 38.3994C85.1965 34.5992 84.8797 34.8575 86.255 35.8486ZM74.3803 33.5502C74.6248 33.9886 74.5172 34.2425 74.2239 33.9047C73.9927 33.6323 73.9474 33.2424 74.1347 33.2753C74.1923 33.2853 74.302 33.4137 74.3803 33.5502ZM44.8287 30.1193C45.1096 30.8369 45.5412 32.0173 45.7908 32.7431C46.0574 33.4581 46.4582 34.565 46.694 35.2065C46.9324 35.8348 47.1111 36.3844 47.1062 36.4108C47.0812 36.5428 44.8569 33.9026 42.5148 30.9416L41.638 29.8331L42.246 29.5305C42.8202 29.2491 44.2905 28.7156 44.3238 28.7759C44.3357 28.7917 44.5646 29.391 44.8287 30.1193ZM77.7076 36.2609C78.2822 37.9438 78.3148 38.0859 78.019 37.7613C77.6612 37.3713 76.7009 34.816 76.8299 34.6067C77.017 34.3258 77.0929 34.4755 77.7076 36.2609ZM55.2336 31.8465C55.9543 32.6002 56.7159 33.6885 56.8997 34.2117C57.0151 34.5456 57.1622 34.4759 53.733 35.6075C52.1618 36.1234 50.4484 36.6826 49.9374 36.8659C49.412 37.0466 48.9254 37.1796 48.8534 37.167C48.6661 37.1342 49.3003 36.536 50.1724 35.9386C52.1898 34.5597 54.9008 32.6612 55.2151 32.4162C55.6722 32.0461 53.9622 33.1379 51.8772 34.5595L50.1886 35.6959L51.0249 34.7375C52.8552 32.6166 54.3018 31.0286 54.4027 31.0462C54.4603 31.0563 54.8376 31.4225 55.2336 31.8465ZM43.0038 31.8184C43.8022 32.7903 45.0463 34.3177 45.747 35.177C46.4621 36.0388 47.0074 36.7754 46.9736 36.7968C46.9373 36.8314 46.401 36.5192 45.7932 36.1126C45.1973 35.7218 43.4887 34.6041 42.017 33.6506C40.5308 32.6946 39.3372 31.8444 39.3522 31.7652C39.4022 31.5012 41.2547 29.9706 41.4564 30.0059C41.4996 30.0135 42.1934 30.8307 43.0038 31.8184ZM64.9168 34.3203C65.0428 34.5197 64.9946 34.5385 64.6488 34.478C64.1158 34.3846 63.1927 34.7003 63.0413 35.0284C62.9243 35.2534 62.8453 35.1987 62.3189 34.5199L61.7329 33.7626L62.7275 33.855C64.5246 34.0334 64.767 34.0895 64.9168 34.3203ZM89.0979 39.3884C89.3537 39.9242 89.5212 40.3764 89.5043 40.3871C89.1737 40.5611 81.787 42.3907 81.7418 42.3146C81.6917 42.2649 81.7499 42.1932 81.8464 42.1556C81.991 42.0991 84.6008 40.5784 87.4159 38.9164C87.9206 38.6093 88.4128 38.3681 88.4848 38.3807C88.5712 38.3959 88.8421 38.8525 89.0979 39.3884ZM71.8263 36.3491C71.7224 36.4264 71.4264 36.811 71.1447 37.1982C70.5714 38.0253 70.5313 37.9228 71.0575 36.951C71.4668 36.2043 71.709 35.9467 71.9026 36.1033C71.9672 36.1556 71.9472 36.2612 71.8263 36.3491ZM57.4026 35.4865C57.6467 36.3204 57.8026 37.3844 57.6937 37.488C57.6405 37.5333 57.3229 37.5595 56.9816 37.5542C56.1235 37.5267 51.0796 37.5161 49.8989 37.5411C49.3891 37.5609 48.9494 37.5248 48.9306 37.467C48.8785 37.3487 56.9976 34.6381 57.1123 34.74C57.1649 34.7765 57.2947 35.113 57.4026 35.4865ZM89.6178 40.6525C89.6128 40.6789 89.6913 41.1292 89.7956 41.6794C89.8879 42.2139 89.9013 42.6936 89.8481 42.7389C89.7492 42.7897 84.892 42.8937 82.8244 42.8861C81.1177 42.86 81.7063 42.5811 85.5289 41.573C88.776 40.696 89.6284 40.518 89.6178 40.6525ZM41.7044 33.6504C43.0446 34.5126 44.7413 35.6146 45.4976 36.1017C46.8064 36.9721 47.1906 37.3804 46.4257 37.0964C46.2027 37.0164 45.0225 36.646 43.7821 36.2786C38.8615 34.8301 37.722 34.4805 37.6813 34.4597C37.5165 34.3081 38.9321 32.019 39.1626 32.0593C39.2202 32.0694 40.3787 32.7907 41.7044 33.6504ZM77.1412 39.4899C77.7894 40.6265 77.7024 40.693 76.7856 39.7959C76.2818 39.3121 76.2178 39.1781 76.3919 39.0449C76.6892 38.8105 76.7826 38.8678 77.1412 39.4899ZM70.3637 38.4936C70.2442 38.7318 69.9591 39.6094 69.7559 40.4468C69.5503 41.2974 69.317 41.9794 69.2594 41.9693C69.1153 41.9441 69.1584 41.6379 69.4171 40.4283C69.5664 39.7179 70.4548 37.8548 70.5595 38.0096C70.5833 38.041 70.4976 38.2579 70.3637 38.4936ZM77.0445 40.2368C77.945 41.0629 78.8926 42.3474 78.6948 42.4492C78.6297 42.4787 76.2418 41.883 75.3422 41.6027C74.9776 41.4843 74.7502 41.3489 74.7702 41.2433C74.7901 41.1377 74.7168 40.9748 74.6334 40.8647C74.4711 40.6999 74.4861 40.6207 74.7678 40.2335C75.4794 39.2261 75.6828 39.0162 75.8238 39.1364C75.9147 39.2068 76.4617 39.6982 77.0445 40.2368ZM89.921 43.2973C89.9318 43.4765 89.8576 44.1046 89.7451 44.6987C89.5028 45.9793 89.7051 45.9329 87.4286 45.2204C81.765 43.4508 81.8633 43.4816 81.9133 43.2176C81.9383 43.0856 82.8427 43.0257 85.3793 42.9927C87.274 42.97 88.9162 42.9439 89.0365 42.9377C89.6114 42.8884 89.8871 43.0049 89.921 43.2973ZM57.7195 38.9248C57.5389 40.9801 56.0983 43.4012 54.1693 44.8638C53.0599 45.6925 50.9108 46.6664 50.7347 46.4173C50.5323 46.1499 48.1108 38.8102 48.1909 38.7014C48.2347 38.6273 49.3929 40.0578 50.7887 41.8845C52.187 43.6981 53.3785 45.189 53.4361 45.1991C53.4937 45.2092 52.4056 43.7228 51.0098 41.896C49.6165 40.056 48.5021 38.5513 48.5384 38.5168C48.606 38.4741 49.5202 39.0707 53.1667 41.51C55.0953 42.8026 55.9498 43.3206 55.8094 43.1187C55.7737 43.0715 54.1779 41.9872 52.2468 40.7078C50.3158 39.4283 48.7275 38.3044 48.7136 38.2201C48.6929 38.0937 48.8827 38.1133 49.3745 38.2677C49.7534 38.3886 50.5766 38.601 51.2055 38.7385C52.1463 38.9579 52.0505 38.9138 50.6686 38.508C48.1159 37.7608 48.2223 37.6703 51.778 37.6794C53.2061 37.684 55.127 37.6795 56.0214 37.6725C57.125 37.6612 57.68 37.7175 57.7346 37.8226C57.7797 37.8987 57.7737 38.4023 57.7195 38.9248ZM40.7941 35.5506C42.3439 36.0131 44.3015 36.6015 45.134 36.8428C45.9785 37.0999 46.6788 37.3317 46.7146 37.3789C46.8004 37.4758 45.6943 37.5002 43.3988 37.4391C42.4204 37.4178 40.6416 37.379 39.4278 37.3436C38.2114 37.3215 37.166 37.2611 37.1159 37.2114C36.9868 37.107 37.3852 34.8443 37.5543 34.7375C37.7089 34.6282 37.6513 34.6181 40.7941 35.5506ZM76.6584 42.1197C77.2247 42.2735 77.6588 42.4177 77.6106 42.4366C77.5261 42.4899 74.5027 42.3422 74.0272 42.2589C73.7247 42.2059 73.7272 42.1927 74.1717 41.8887C74.5486 41.6274 74.7196 41.5891 75.1299 41.7019C75.3987 41.7763 76.0921 41.9659 76.6584 42.1197ZM82.9058 43.9507C83.8962 44.3015 87.6768 45.4821 88.627 45.7304C89.3061 45.9176 89.3587 45.9541 89.2988 46.2709C89.2638 46.4558 89.0536 46.9373 88.844 47.337C88.3859 48.1843 88.5707 48.2303 86.3884 46.7841C85.5413 46.2265 84.2062 45.3379 83.3948 44.8275C81.3917 43.5354 81.3015 43.3832 82.9058 43.9507ZM44.5029 38.3691C43.2529 38.6821 41.1887 39.2071 39.893 39.5257C37.569 40.0871 37.5546 40.0845 37.4366 39.7638C37.3162 39.4562 37.0279 37.7553 37.0628 37.5704C37.0803 37.478 38.6167 37.4607 41.2367 37.5378C42.0084 37.5502 43.3425 37.5793 44.2031 37.5936C47.0254 37.6243 47.0561 37.6979 44.5029 38.3691ZM85.418 46.3277C85.9612 46.682 86.849 47.2604 87.3659 47.5965L88.3327 48.2296L87.6517 48.9969C87.2736 49.4217 86.8304 49.876 86.6682 50.0249L86.3564 50.2568L85.2145 48.8973C81.8678 44.8737 81.3557 44.1975 81.5323 44.0511C81.6894 43.9286 82.0008 44.0922 83.0728 44.7984C83.8147 45.283 84.8748 45.9734 85.418 46.3277ZM45.0168 39.1139C44.1691 39.661 42.4879 40.7578 41.2826 41.5424L39.0918 42.9727L38.5659 42.2122C38.2732 41.7927 37.941 41.1889 37.8111 40.8524L37.5847 40.2398L39.8173 39.6898C41.0479 39.4007 43.0012 38.9108 44.1573 38.6223C45.3133 38.3337 46.3247 38.1017 46.4112 38.1169C46.4857 38.1163 45.8621 38.5799 45.0168 39.1139ZM46.0436 39.4301C45.469 40.1069 44.4968 41.2325 43.8978 41.9596C43.2869 42.671 42.4844 43.608 42.1351 44.0378C41.7714 44.4652 41.4153 44.8529 41.3476 44.8956C41.1254 45.0476 39.2355 43.3935 39.2904 43.103C39.3204 42.9446 46.7883 38.1693 46.9467 38.197C47.0188 38.2097 46.6157 38.7665 46.0436 39.4301ZM79.1647 43.9773C79.1422 44.0962 76.0188 46.8363 74.217 48.3348C73.7769 48.6942 73.4476 49.0184 73.4833 49.0656C73.5191 49.1128 73.9686 48.7823 74.4864 48.3274C78.3084 45.0413 79.3145 44.2082 79.4542 44.1781C79.56 44.1693 79.5619 44.2379 79.4743 44.3862C79.3748 44.5188 78.9443 45.2209 78.4893 45.9732C76.7984 48.7734 75.8547 50.2994 75.6456 50.6174L75.4341 50.9487L74.6854 50.4219C74.2787 50.1325 73.6671 49.5888 73.3093 49.1988C72.6939 48.5181 71.5355 46.7738 71.6683 46.7016C72.4403 46.3185 77.85 43.9244 78.1318 43.851C78.604 43.7154 79.1997 43.7925 79.1647 43.9773ZM46.5877 40.3302C44.3122 46.2197 44.1901 46.4711 43.917 46.3414C43.7923 46.2923 43.5023 46.1733 43.2649 46.0908C43.0443 45.9976 42.5268 45.7433 42.1534 45.5142L41.4398 45.1164L42.805 43.4868C43.5687 42.5976 44.4125 41.5996 44.696 41.281C44.9821 40.9492 45.5398 40.283 45.9592 39.7973C46.808 38.7729 47.2005 38.3506 47.26 38.4292C47.2838 38.4607 46.9749 39.3068 46.5877 40.3302ZM83.0199 46.4941C83.9662 47.6283 85.0793 48.9827 85.4748 49.4885L86.2112 50.395L85.272 50.9534C84.7554 51.2448 84.128 51.5714 83.875 51.6498L83.4172 51.7879L82.2027 48.1378C81.539 46.1392 81.0101 44.4507 81.0226 44.3846C81.0626 44.1734 81.3227 44.4509 83.0199 46.4941ZM47.3776 42.842C47.2652 44.7728 47.164 46.4874 47.1628 46.6509C47.1492 46.8804 47.0646 46.9338 46.7064 46.9392C46.1558 46.9382 45.0296 46.7546 44.6462 46.5783L44.3705 46.4618L45.0173 44.7746C45.644 43.193 47.0152 39.7231 47.353 38.882L47.5144 38.5011L47.5547 38.9173C47.5723 39.1387 47.4899 40.9111 47.3776 42.842ZM49.1267 42.33C49.7621 44.2418 50.3461 45.9536 50.4289 46.1455C50.4998 46.3215 50.5199 46.5297 50.4642 46.5881C50.3334 46.7289 48.7545 46.9706 47.9829 46.9582C47.2519 46.9666 47.3028 47.2483 47.4908 43.8166C47.6615 40.7911 47.7359 39.4538 47.7275 38.9476C47.7159 38.2226 47.931 38.7377 49.1267 42.33ZM77.1473 44.0195C76.6789 44.2921 71.9756 46.4145 71.7445 46.4558C71.6218 46.4752 71.4462 46.1444 71.2843 45.5841C70.8269 43.9899 70.7806 44.0772 72.1328 43.9322C73.2445 43.7996 74.5792 43.7469 76.3029 43.7624C77.476 43.777 77.5167 43.7978 77.1473 44.0195ZM78.9615 48.1975C78.4878 50.2287 78.0621 51.9274 78.0139 51.9462C77.9124 52.0103 76.1283 51.3704 75.8532 51.1721C75.6189 50.9947 75.597 51.0318 79.032 45.3863C79.701 44.2895 79.6985 44.3027 79.77 44.3971C79.8057 44.4443 79.4521 46.1555 78.9615 48.1975ZM81.9897 48.005C82.6038 49.8722 83.1283 51.5054 83.1465 51.645C83.1855 51.911 82.8023 52.0485 81.5196 52.2193C80.9372 52.3083 80.882 52.285 80.8475 52.0743C80.8066 51.7398 80.4513 46.617 80.388 45.3783C80.3664 44.7062 80.4646 44.4233 80.7233 44.5505C80.7904 44.5895 81.3586 46.1485 81.9897 48.005ZM80.2328 45.5694C80.2794 46.1095 80.3754 47.4903 80.4417 48.6341C80.5106 49.7647 80.6121 51.0373 80.6524 51.4536C80.6927 51.8699 80.6998 52.2258 80.6828 52.2364C80.5307 52.3325 78.4618 52.1747 78.3929 52.0672C78.3452 52.0043 78.6026 50.6444 78.9625 49.057C79.3225 47.4696 79.6974 45.803 79.7849 45.3409C79.8842 44.8945 79.9974 44.5324 80.0694 44.545C80.1271 44.5551 80.2031 45.0186 80.2328 45.5694Z" fill="#1B6B82"/>
</svg>
